<?xml version="1.0" encoding="UTF-8"?>
<svg version="1.1" xmlns="http://www.w3.org/2000/svg" viewBox="50 50 400 400">
<path d="M0 0 C1.26392578 -0.00386719 2.52785156 -0.00773437 3.83007812 -0.01171875 C16.40930295 0.0011632 28.6233789 0.64755005 40.9375 3.3125 C41.96681641 3.53317139 42.99613281 3.75384277 44.05664062 3.98120117 C58.77306039 7.24809107 72.15903727 12.06592585 85.43896484 19.1875 C87.02055018 20.03548767 88.6132042 20.8627512 90.20703125 21.6875 C97.19080948 25.36422445 103.6763209 29.67614457 110.1875 34.125 C111.84845703 35.17300781 111.84845703 35.17300781 113.54296875 36.2421875 C114.41566406 36.86351562 115.28835938 37.48484375 116.1875 38.125 C116.1875 38.785 116.1875 39.445 116.1875 40.125 C116.92613281 40.37121094 117.66476562 40.61742187 118.42578125 40.87109375 C121.4683017 42.25249271 123.10035767 43.76326804 125.375 46.1875 C127.99167081 49.04637806 127.99167081 49.04637806 131.1875 51.125 C131.1875 51.785 131.1875 52.445 131.1875 53.125 C131.8475 53.125 132.5075 53.125 133.1875 53.125 C133.1875 53.785 133.1875 54.445 133.1875 55.125 C133.8475 55.125 134.5075 55.125 135.1875 55.125 C135.1875 55.785 135.1875 56.445 135.1875 57.125 C135.8475 57.125 136.5075 57.125 137.1875 57.125 C139.93326683 60.08197967 142.36613577 63.29795212 144.86376953 66.46582031 C146.16662952 68.09884069 147.49843532 69.70325523 148.83984375 71.3046875 C160.73035049 85.68061063 169.12989404 101.92986305 176.1875 119.125 C176.78304687 120.52685547 176.78304687 120.52685547 177.390625 121.95703125 C179.77203963 127.95781811 181.28628422 134.17651505 182.8125 140.4375 C183.0189917 141.27901611 183.2254834 142.12053223 183.43823242 142.98754883 C186.47898206 155.95984888 187.53788919 168.63192963 187.50317383 181.90991211 C187.50001682 184.42410856 187.5235625 186.93711989 187.54882812 189.45117188 C187.59121011 200.32764121 186.45440969 210.4950797 184.1875 221.125 C184.00372803 222.02468506 183.81995605 222.92437012 183.63061523 223.85131836 C178.23619254 249.42933607 166.89370416 275.74631131 150.1875 296.125 C149.5275 296.125 148.8675 296.125 148.1875 296.125 C148.001875 296.785 147.81625 297.445 147.625 298.125 C145.57941226 302.39405268 142.61565357 305.86663706 139.1875 309.125 C138.5275 309.125 137.8675 309.125 137.1875 309.125 C136.878125 309.929375 136.878125 309.929375 136.5625 310.75 C134.65499574 314.04478009 132.13930616 316.71863628 129.1875 319.125 C128.5275 319.125 127.8675 319.125 127.1875 319.125 C127.1875 319.785 127.1875 320.445 127.1875 321.125 C123.71899903 324.35452945 119.92158764 327.20924833 116.1875 330.125 C115.21554687 330.888125 114.24359375 331.65125 113.2421875 332.4375 C100.99142957 341.84608209 88.22700081 348.86181684 74.1875 355.125 C73.14722656 355.599375 72.10695313 356.07375 71.03515625 356.5625 C59.4137675 361.66379547 47.22018279 364.8473791 34.8125 367.375 C33.61947266 367.61972046 33.61947266 367.61972046 32.40234375 367.86938477 C-12.5826904 376.60150038 -58.06778081 363.92843146 -96.8125 341.125 C-96.8125 340.465 -96.8125 339.805 -96.8125 339.125 C-97.39660645 339.0125293 -97.98071289 338.90005859 -98.58251953 338.78417969 C-101.02233647 338.06297258 -102.47543358 337.11475006 -104.4921875 335.578125 C-105.51505859 334.8046875 -105.51505859 334.8046875 -106.55859375 334.015625 C-107.26113281 333.47421875 -107.96367187 332.9328125 -108.6875 332.375 C-109.38230469 331.8490625 -110.07710938 331.323125 -110.79296875 330.78125 C-112.81229023 329.24489242 -114.81571791 327.69050948 -116.8125 326.125 C-117.42125977 325.65126953 -118.03001953 325.17753906 -118.65722656 324.68945312 C-120.08238029 323.54966488 -121.45375147 322.34318833 -122.8125 321.125 C-122.8125 320.465 -122.8125 319.805 -122.8125 319.125 C-123.37453125 318.8878125 -123.9365625 318.650625 -124.515625 318.40625 C-127.33144042 316.83552303 -129.29205416 314.91028536 -131.5625 312.625 C-132.36171875 311.8309375 -133.1609375 311.036875 -133.984375 310.21875 C-135.8125 308.125 -135.8125 308.125 -135.8125 306.125 C-136.4725 306.125 -137.1325 306.125 -137.8125 306.125 C-151.97539574 292.00017656 -162.06258296 272.30478141 -169.8125 254.125 C-170.11623535 253.42068848 -170.4199707 252.71637695 -170.73291016 251.99072266 C-179.79499435 230.62004567 -183.24173842 207.768385 -183.1875 184.6875 C-183.18728851 183.85383911 -183.18707703 183.02017822 -183.18685913 182.16125488 C-183.15230496 168.47256449 -182.11800382 155.45407614 -178.8125 142.125 C-178.61994629 141.31740234 -178.42739258 140.50980469 -178.22900391 139.67773438 C-172.82185325 117.36250945 -163.00133039 96.87156896 -149.8125 78.125 C-149.11898437 77.02800781 -148.42546875 75.93101562 -147.7109375 74.80078125 C-147.08445313 73.91777344 -146.45796875 73.03476563 -145.8125 72.125 C-145.1525 72.125 -144.4925 72.125 -143.8125 72.125 C-143.5546875 71.54878906 -143.296875 70.97257812 -143.03125 70.37890625 C-141.7076324 67.93106215 -140.1824228 66.11862273 -138.3125 64.0625 C-136.25434439 61.79067993 -134.52111829 59.68792743 -132.8125 57.125 C-132.1525 57.125 -131.4925 57.125 -130.8125 57.125 C-130.8125 56.465 -130.8125 55.805 -130.8125 55.125 C-130.1525 55.125 -129.4925 55.125 -128.8125 55.125 C-128.8125 54.465 -128.8125 53.805 -128.8125 53.125 C-128.1525 53.125 -127.4925 53.125 -126.8125 53.125 C-126.8125 52.465 -126.8125 51.805 -126.8125 51.125 C-125.23828125 49.5390625 -125.23828125 49.5390625 -123.125 47.75 C-122.39667969 47.13253906 -121.66835937 46.51507813 -120.91796875 45.87890625 C-120.22316406 45.30011719 -119.52835938 44.72132812 -118.8125 44.125 C-117.86375 43.320625 -116.915 42.51625 -115.9375 41.6875 C-113.8125 40.125 -113.8125 40.125 -111.8125 40.125 C-111.8125 39.465 -111.8125 38.805 -111.8125 38.125 C-109.67884932 36.50330286 -107.55490998 35.0212275 -105.3125 33.5625 C-104.63832031 33.11994873 -103.96414062 32.67739746 -103.26953125 32.22143555 C-71.61991303 11.70549194 -37.90646824 -0.11492613 0 0 Z " fill="#030402" transform="translate(247.8125,65.875)"/>
<path d="M0 0 C1.26392578 -0.00386719 2.52785156 -0.00773437 3.83007812 -0.01171875 C16.40930295 0.0011632 28.6233789 0.64755005 40.9375 3.3125 C41.96681641 3.53317139 42.99613281 3.75384277 44.05664062 3.98120117 C58.77306039 7.24809107 72.15903727 12.06592585 85.43896484 19.1875 C87.02055018 20.03548767 88.6132042 20.8627512 90.20703125 21.6875 C97.19080948 25.36422445 103.6763209 29.67614457 110.1875 34.125 C111.84845703 35.17300781 111.84845703 35.17300781 113.54296875 36.2421875 C114.41566406 36.86351562 115.28835938 37.48484375 116.1875 38.125 C116.1875 38.785 116.1875 39.445 116.1875 40.125 C116.92613281 40.37121094 117.66476562 40.61742187 118.42578125 40.87109375 C121.4683017 42.25249271 123.10035767 43.76326804 125.375 46.1875 C127.99167081 49.04637806 127.99167081 49.04637806 131.1875 51.125 C131.1875 51.785 131.1875 52.445 131.1875 53.125 C131.8475 53.125 132.5075 53.125 133.1875 53.125 C133.1875 53.785 133.1875 54.445 133.1875 55.125 C133.8475 55.125 134.5075 55.125 135.1875 55.125 C135.1875 55.785 135.1875 56.445 135.1875 57.125 C135.8475 57.125 136.5075 57.125 137.1875 57.125 C139.93326683 60.08197967 142.36613577 63.29795212 144.86376953 66.46582031 C146.16662952 68.09884069 147.49843532 69.70325523 148.83984375 71.3046875 C160.73035049 85.68061063 169.12989404 101.92986305 176.1875 119.125 C176.78304687 120.52685547 176.78304687 120.52685547 177.390625 121.95703125 C179.77203963 127.95781811 181.28628422 134.17651505 182.8125 140.4375 C183.0189917 141.27901611 183.2254834 142.12053223 183.43823242 142.98754883 C186.47898206 155.95984888 187.53788919 168.63192963 187.50317383 181.90991211 C187.50001682 184.42410856 187.5235625 186.93711989 187.54882812 189.45117188 C187.59121011 200.32764121 186.45440969 210.4950797 184.1875 221.125 C184.00372803 222.02468506 183.81995605 222.92437012 183.63061523 223.85131836 C178.23619254 249.42933607 166.89370416 275.74631131 150.1875 296.125 C149.5275 296.125 148.8675 296.125 148.1875 296.125 C148.001875 296.785 147.81625 297.445 147.625 298.125 C145.57941226 302.39405268 142.61565357 305.86663706 139.1875 309.125 C138.5275 309.125 137.8675 309.125 137.1875 309.125 C136.878125 309.929375 136.878125 309.929375 136.5625 310.75 C134.65499574 314.04478009 132.13930616 316.71863628 129.1875 319.125 C128.5275 319.125 127.8675 319.125 127.1875 319.125 C127.1875 319.785 127.1875 320.445 127.1875 321.125 C123.71899903 324.35452945 119.92158764 327.20924833 116.1875 330.125 C115.21554687 330.888125 114.24359375 331.65125 113.2421875 332.4375 C100.99142957 341.84608209 88.22700081 348.86181684 74.1875 355.125 C73.14722656 355.599375 72.10695313 356.07375 71.03515625 356.5625 C59.4137675 361.66379547 47.22018279 364.8473791 34.8125 367.375 C33.61947266 367.61972046 33.61947266 367.61972046 32.40234375 367.86938477 C-12.5826904 376.60150038 -58.06778081 363.92843146 -96.8125 341.125 C-96.8125 340.465 -96.8125 339.805 -96.8125 339.125 C-97.39660645 339.0125293 -97.98071289 338.90005859 -98.58251953 338.78417969 C-101.02233647 338.06297258 -102.47543358 337.11475006 -104.4921875 335.578125 C-105.51505859 334.8046875 -105.51505859 334.8046875 -106.55859375 334.015625 C-107.26113281 333.47421875 -107.96367187 332.9328125 -108.6875 332.375 C-109.38230469 331.8490625 -110.07710938 331.323125 -110.79296875 330.78125 C-112.81229023 329.24489242 -114.81571791 327.69050948 -116.8125 326.125 C-117.42125977 325.65126953 -118.03001953 325.17753906 -118.65722656 324.68945312 C-120.08238029 323.54966488 -121.45375147 322.34318833 -122.8125 321.125 C-122.8125 320.465 -122.8125 319.805 -122.8125 319.125 C-123.37453125 318.8878125 -123.9365625 318.650625 -124.515625 318.40625 C-127.33144042 316.83552303 -129.29205416 314.91028536 -131.5625 312.625 C-132.36171875 311.8309375 -133.1609375 311.036875 -133.984375 310.21875 C-135.8125 308.125 -135.8125 308.125 -135.8125 306.125 C-136.4725 306.125 -137.1325 306.125 -137.8125 306.125 C-151.97539574 292.00017656 -162.06258296 272.30478141 -169.8125 254.125 C-170.11623535 253.42068848 -170.4199707 252.71637695 -170.73291016 251.99072266 C-179.79499435 230.62004567 -183.24173842 207.768385 -183.1875 184.6875 C-183.18728851 183.85383911 -183.18707703 183.02017822 -183.18685913 182.16125488 C-183.15230496 168.47256449 -182.11800382 155.45407614 -178.8125 142.125 C-178.61994629 141.31740234 -178.42739258 140.50980469 -178.22900391 139.67773438 C-172.82185325 117.36250945 -163.00133039 96.87156896 -149.8125 78.125 C-149.11898437 77.02800781 -148.42546875 75.93101562 -147.7109375 74.80078125 C-147.08445313 73.91777344 -146.45796875 73.03476563 -145.8125 72.125 C-145.1525 72.125 -144.4925 72.125 -143.8125 72.125 C-143.5546875 71.54878906 -143.296875 70.97257812 -143.03125 70.37890625 C-141.7076324 67.93106215 -140.1824228 66.11862273 -138.3125 64.0625 C-136.25434439 61.79067993 -134.52111829 59.68792743 -132.8125 57.125 C-132.1525 57.125 -131.4925 57.125 -130.8125 57.125 C-130.8125 56.465 -130.8125 55.805 -130.8125 55.125 C-130.1525 55.125 -129.4925 55.125 -128.8125 55.125 C-128.8125 54.465 -128.8125 53.805 -128.8125 53.125 C-128.1525 53.125 -127.4925 53.125 -126.8125 53.125 C-126.8125 52.465 -126.8125 51.805 -126.8125 51.125 C-125.23828125 49.5390625 -125.23828125 49.5390625 -123.125 47.75 C-122.39667969 47.13253906 -121.66835937 46.51507813 -120.91796875 45.87890625 C-120.22316406 45.30011719 -119.52835938 44.72132812 -118.8125 44.125 C-117.86375 43.320625 -116.915 42.51625 -115.9375 41.6875 C-113.8125 40.125 -113.8125 40.125 -111.8125 40.125 C-111.8125 39.465 -111.8125 38.805 -111.8125 38.125 C-109.67884932 36.50330286 -107.55490998 35.0212275 -105.3125 33.5625 C-104.63832031 33.11994873 -103.96414062 32.67739746 -103.26953125 32.22143555 C-71.61991303 11.70549194 -37.90646824 -0.11492613 0 0 Z M-49.8125 29.125 C-50.864375 29.45886719 -51.91625 29.79273438 -53 30.13671875 C-68.93618532 35.71853366 -84.94022425 44.18813025 -97.8125 55.125 C-98.9697087 56.08244643 -100.12728225 57.039452 -101.28515625 57.99609375 C-126.98091936 79.43850377 -145.70444196 106.08840192 -155.8125 138.125 C-156.13605469 139.11628906 -156.45960938 140.10757813 -156.79296875 141.12890625 C-168.72305575 182.73281371 -161.32976696 227.68060587 -140.8125 265.125 C-137.75320789 270.32556879 -134.36063714 275.24858588 -130.8125 280.125 C-130.25433594 280.91390625 -129.69617188 281.7028125 -129.12109375 282.515625 C-121.4586979 292.8857848 -112.00714317 303.20979289 -101.8125 311.125 C-101.31234375 311.51574707 -100.8121875 311.90649414 -100.296875 312.30908203 C-93.12627461 317.86588618 -85.74936267 322.94691229 -77.9375 327.5625 C-77.26082275 327.96315674 -76.58414551 328.36381348 -75.88696289 328.77661133 C-55.56539386 340.50811524 -31.20802863 347.42828378 -7.8125 348.125 C-6.8956543 348.15754883 -5.97880859 348.19009766 -5.03417969 348.22363281 C18.75741698 348.97208152 39.94086608 345.55830242 62.1875 337.125 C62.85604004 336.87492187 63.52458008 336.62484375 64.21337891 336.3671875 C100.20829951 322.67275207 133.8529171 291.02234551 150.1875 256.125 C155.74837895 243.52970441 160.66665202 230.69588087 163.1875 217.125 C163.33413086 216.34511719 163.48076172 215.56523437 163.63183594 214.76171875 C171.0946547 173.48350402 163.3388133 132.70475457 141.1875 97.125 C139.27201423 94.38774443 137.25953921 91.74500419 135.1875 89.125 C134.22263672 87.86429688 134.22263672 87.86429688 133.23828125 86.578125 C129.4574106 81.78619006 125.52523411 77.15585077 121.4375 72.625 C120.97770752 72.1084082 120.51791504 71.59181641 120.04418945 71.05957031 C117.58557016 68.37223184 115.43276197 66.70377609 112.1875 65.125 C111.8575 64.135 111.5275 63.145 111.1875 62.125 C109.70212188 60.64925964 109.70212188 60.64925964 107.828125 59.26953125 C107.13138672 58.73352295 106.43464844 58.19751465 105.71679688 57.64526367 C104.96462891 57.08170166 104.21246094 56.51813965 103.4375 55.9375 C102.66470703 55.35524658 101.89191406 54.77299316 101.09570312 54.1730957 C89.52570917 45.5542158 77.3920144 38.88112783 64.1875 33.125 C63.55537598 32.84382324 62.92325195 32.56264648 62.27197266 32.27294922 C27.7948408 17.18179523 -14.44802616 17.43102579 -49.8125 29.125 Z " fill="#06090B" transform="translate(247.8125,65.875)"/>
<path d="M0 0 C13.86 0 27.72 0 42 0 C42.99 6.27 43.98 12.54 45 19 C48.72103949 29.97229592 54.31651123 38.02196126 61.40771484 46.9765625 C63.97204698 50.23525382 66.45389333 53.55462409 68.9375 56.875 C69.6797583 57.86246216 69.6797583 57.86246216 70.43701172 58.86987305 C74.10615468 63.76344586 77.68710251 68.71625633 81.25 73.6875 C86.86325037 81.51684615 92.66336352 89.19351198 98.53222656 96.83276367 C102.11221251 101.49640397 105.6165607 106.19161223 109 111 C113.03811717 109.65396094 114.45857792 106.97379531 116.8125 103.625 C117.78720973 102.26653179 118.76249976 100.90847982 119.73828125 99.55078125 C120.25986816 98.82068848 120.78145508 98.0905957 121.31884766 97.33837891 C124.34086413 93.13494094 127.42408133 88.97656149 130.5 84.8125 C131.67710198 83.21485749 132.8541864 81.61720204 134.03125 80.01953125 C135.01939974 78.67862986 136.00891423 77.33873278 137 76 C137.49282471 75.26225342 137.98564941 74.52450684 138.4934082 73.7644043 C140 72 140 72 143.07421875 71.75 C144.26660156 71.8325 145.45898438 71.915 146.6875 72 C153.98433966 72.1878692 158.36637561 71.36476877 163.7421875 66.38671875 C169.73451948 59.92130792 170.35597345 53.2922812 170.21484375 44.74609375 C170.265625 42.6796875 170.265625 42.6796875 171 39 C173.93359375 36.63671875 173.93359375 36.63671875 177 35 C180.66497908 30.82950656 181.37989978 26.94596721 181.37109375 21.5390625 C180.80549847 17.66920005 178.91936209 14.68910787 177.0546875 11.296875 C175.61717094 8.16628337 175.82854426 6.20197902 177 3 C179 0 179 0 180.79702759 -0.36076355 C181.88290665 -0.3507708 181.88290665 -0.3507708 182.99072266 -0.34057617 C183.81142242 -0.34034958 184.63212219 -0.34012299 185.47769165 -0.33988953 C186.36419403 -0.32440567 187.25069641 -0.30892181 188.1640625 -0.29296875 C189.07127045 -0.28872391 189.97847839 -0.28447906 190.91317749 -0.28010559 C193.81741732 -0.26328133 196.7209691 -0.2256226 199.625 -0.1875 C201.59113583 -0.17245799 203.55728251 -0.15876875 205.5234375 -0.14648438 C210.34922439 -0.11336557 215.17449545 -0.06155786 220 0 C220 1.65 220 3.3 220 5 C218.6078125 5.61875 218.6078125 5.61875 217.1875 6.25 C211.92666916 9.13829928 210.64262492 12.36438662 209 18 C208.6996744 20.80784257 208.6996744 20.80784257 208.73257446 23.7101593 C208.72404449 24.82448334 208.71551453 25.93880737 208.70672607 27.0868988 C208.70763245 28.29483597 208.70853882 29.50277313 208.70947266 30.74731445 C208.70275543 32.03095886 208.69603821 33.31460327 208.68911743 34.637146 C208.67150093 38.14763283 208.66676388 41.65802206 208.66548586 45.16854882 C208.66406114 47.365384 208.65978545 49.56219461 208.65449142 51.75902367 C208.63600495 59.43335919 208.627819 67.10762537 208.62939453 74.78198242 C208.63059529 81.91887475 208.60950244 89.05546435 208.5779072 96.19228011 C208.55169518 102.33348195 208.5410293 108.47458522 208.54230535 114.61584252 C208.54281358 118.2775912 208.53720829 121.93907071 208.51594925 125.60076332 C208.49286106 129.68888431 208.50211772 133.77633344 208.51416016 137.86450195 C208.50292114 139.06636642 208.49168213 140.2682309 208.48010254 141.5065155 C208.54123461 149.68845273 209.77169147 156.08689875 215.0625 162.5 C217.0293236 164.19350214 217.0293236 164.19350214 220 165 C220 166.65 220 168.3 220 170 C213.8944529 170.02464513 207.78893449 170.04283371 201.68334961 170.05493164 C199.60456844 170.05997288 197.52579084 170.06680574 195.44702148 170.07543945 C192.46597414 170.08751422 189.48497351 170.09323024 186.50390625 170.09765625 C185.10078941 170.10539818 185.10078941 170.10539818 183.66932678 170.11329651 C182.80850998 170.11337204 181.94769318 170.11344757 181.06079102 170.11352539 C180.29912125 170.115746 179.53745148 170.11796661 178.75270081 170.12025452 C177 170 177 170 176 169 C175.87465012 165.98723889 175.81387984 162.99630417 175.79467773 159.98217773 C175.78477814 159.03593536 175.77487854 158.08969299 175.76467896 157.11477661 C175.73296197 153.97107489 175.70826639 150.82735802 175.68359375 147.68359375 C175.66303302 145.51025488 175.64203679 143.33692009 175.62062073 141.16358948 C175.56530905 135.43103326 175.51594003 129.69844042 175.46777344 123.96582031 C175.41762465 118.12106042 175.3619041 112.276354 175.30664062 106.43164062 C175.19894787 94.95447272 175.09752775 83.47725847 175 72 C173.40200686 74.0650147 171.80565464 76.1312637 170.21020508 78.19824219 C169.76143257 78.77782684 169.31266006 79.3574115 168.85028839 79.95455933 C165.26977381 84.59728265 161.93157983 89.36638688 158.6875 94.25 C154.38282705 100.64284239 149.91464724 106.85049791 145.1875 112.9375 C140.93516475 118.41316963 136.93954141 123.95200633 133.16015625 129.76953125 C129.81891983 134.76628083 126.26936788 139.6095563 122.73120117 144.46801758 C119.14326368 149.39767386 115.64601541 154.36776418 112.26953125 159.4453125 C111.85058594 159.95835937 111.43164062 160.47140625 111 161 C110.34 161 109.68 161 109 161 C107.16673488 158.59768447 105.44757802 156.18380989 103.75 153.6875 C102.66463386 152.11849405 101.57731928 150.55083454 100.48828125 148.984375 C99.91803223 148.16388672 99.3477832 147.34339844 98.76025391 146.49804688 C95.89031705 142.42520444 92.91209301 138.43418723 89.9375 134.4375 C85.19116678 128.04007144 80.58818128 121.57003762 76.10864258 114.98364258 C71.12170968 107.66917126 65.91485075 100.51710758 60.70996094 93.35693359 C58.9080679 90.87328491 57.11331616 88.38460407 55.3203125 85.89453125 C54.7226709 85.0648584 54.1250293 84.23518555 53.50927734 83.38037109 C52.35544541 81.77820036 51.20210783 80.17567347 50.04931641 78.57275391 C49.53288574 77.85651855 49.01645508 77.1402832 48.484375 76.40234375 C48.02772461 75.76804443 47.57107422 75.13374512 47.10058594 74.48022461 C46.07674551 73.02823404 46.07674551 73.02823404 45 72 C44.67 104.34 44.34 136.68 44 170 C29.48 170 14.96 170 0 170 C0 168.35 0 166.7 0 165 C0.886875 164.690625 1.77375 164.38125 2.6875 164.0625 C7.26551125 161.21204016 9.10938829 158.01176083 11 153 C11.69120282 148.53119649 11.67413654 144.13598149 11.63110352 139.62084961 C11.64183647 137.64842537 11.64183647 137.64842537 11.65278625 135.63615417 C11.67119577 132.05335881 11.65842978 128.471314 11.63869596 124.88855052 C11.62222426 121.12601502 11.63113397 117.36352388 11.63621521 113.60096741 C11.64072616 107.28553374 11.62492731 100.97039722 11.59692383 94.6550293 C11.56486234 87.36862137 11.56489618 80.08274872 11.5821386 72.79630274 C11.59803762 65.76590873 11.59124942 58.73570972 11.57420158 51.70532417 C11.56735504 48.72262906 11.56833866 45.74009137 11.57574654 42.75739861 C11.5848758 38.5878852 11.56080191 34.41918948 11.53344727 30.24975586 C11.54323608 28.40655762 11.54323608 28.40655762 11.55322266 26.52612305 C11.46905129 18.96978627 10.81237898 13.16316526 5.50208378 7.36425686 C3.80008268 5.81842652 2.08991159 4.93685692 0 4 C0 2.68 0 1.36 0 0 Z " fill="#D0D1D0" transform="translate(140,180)"/>
<path d="M0 0 C11.53039004 11.1156278 16.9598889 24.41920448 18.31420898 40.1328125 C19.00237415 46.82436331 21.44888558 51.73319022 25.1875 57.3125 C28.63521271 62.53662566 30.28124888 66.04830186 29.1875 72.3125 C26.66058255 75.34480095 23.70851435 77.55199283 20.1875 79.3125 C19.80185188 81.21571113 19.80185188 81.21571113 19.73046875 83.50390625 C19.66923828 84.36693359 19.60800781 85.22996094 19.54492188 86.11914062 C19.43336289 87.9284478 19.33148398 89.73838305 19.24023438 91.54882812 C18.77248894 97.81476451 17.53302089 102.60805703 13.1875 107.3125 C7.24118689 111.16813487 1.16121444 110.66731059 -5.75 110.5 C-6.81541016 110.48646484 -7.88082031 110.47292969 -8.97851562 110.45898438 C-11.59037588 110.42384724 -14.20116634 110.37465184 -16.8125 110.3125 C-16.8125 110.9725 -16.8125 111.6325 -16.8125 112.3125 C-17.53179687 112.92738281 -17.53179687 112.92738281 -18.265625 113.5546875 C-20.46769194 116.0570363 -20.29823409 118.14972123 -20.5625 121.4375 C-21.50899543 128.54410316 -24.10027581 132.12222408 -28.8125 137.3125 C-29.9743498 138.82113286 -31.12127072 140.34142957 -32.25 141.875 C-32.74371094 142.53628906 -33.23742187 143.19757813 -33.74609375 143.87890625 C-34.09800781 144.35199219 -34.44992188 144.82507813 -34.8125 145.3125 C-38.84174252 143.96941916 -40.20291597 141.30356765 -42.5 137.9375 C-43.40196406 136.64556817 -44.30431166 135.35390403 -45.20703125 134.0625 C-45.65127441 133.42183594 -46.09551758 132.78117188 -46.55322266 132.12109375 C-54.34643334 120.92836309 -62.68443906 110.10764019 -70.8984375 99.22265625 C-73.8838994 95.26305131 -76.85239285 91.29108469 -79.8125 87.3125 C-80.28526367 86.68005371 -80.75802734 86.04760742 -81.24511719 85.39599609 C-86.24037489 78.68872418 -90.90669544 72.23124225 -93.8125 64.3125 C-94.4003125 62.9821875 -94.4003125 62.9821875 -95 61.625 C-99.74036604 48.13318896 -97.47063184 29.76095024 -91.625 17.0625 C-83.10992931 1.53651782 -70.53493529 -7.41964569 -54.33984375 -13.63671875 C-35.64975745 -18.71437225 -14.34239121 -12.32976683 0 0 Z " fill="#030403" transform="translate(285.8125,135.6875)"/>
<path d="M0 0 C1.26392578 -0.00386719 2.52785156 -0.00773437 3.83007812 -0.01171875 C16.40930295 0.0011632 28.6233789 0.64755005 40.9375 3.3125 C41.96681641 3.53317139 42.99613281 3.75384277 44.05664062 3.98120117 C58.77306039 7.24809107 72.15903727 12.06592585 85.43896484 19.1875 C87.02055018 20.03548767 88.6132042 20.8627512 90.20703125 21.6875 C97.19080948 25.36422445 103.6763209 29.67614457 110.1875 34.125 C111.84845703 35.17300781 111.84845703 35.17300781 113.54296875 36.2421875 C114.41566406 36.86351562 115.28835938 37.48484375 116.1875 38.125 C116.1875 38.785 116.1875 39.445 116.1875 40.125 C116.92613281 40.37121094 117.66476562 40.61742187 118.42578125 40.87109375 C121.4683017 42.25249271 123.10035767 43.76326804 125.375 46.1875 C127.99167081 49.04637806 127.99167081 49.04637806 131.1875 51.125 C131.1875 51.785 131.1875 52.445 131.1875 53.125 C131.8475 53.125 132.5075 53.125 133.1875 53.125 C133.1875 53.785 133.1875 54.445 133.1875 55.125 C133.8475 55.125 134.5075 55.125 135.1875 55.125 C135.1875 55.785 135.1875 56.445 135.1875 57.125 C135.8475 57.125 136.5075 57.125 137.1875 57.125 C139.93326683 60.08197967 142.36613577 63.29795212 144.86376953 66.46582031 C146.16662952 68.09884069 147.49843532 69.70325523 148.83984375 71.3046875 C160.73035049 85.68061063 169.12989404 101.92986305 176.1875 119.125 C176.78304687 120.52685547 176.78304687 120.52685547 177.390625 121.95703125 C179.77203963 127.95781811 181.28628422 134.17651505 182.8125 140.4375 C183.0189917 141.27901611 183.2254834 142.12053223 183.43823242 142.98754883 C186.47898206 155.95984888 187.53788919 168.63192963 187.50317383 181.90991211 C187.50001682 184.42410856 187.5235625 186.93711989 187.54882812 189.45117188 C187.59121011 200.32764121 186.45440969 210.4950797 184.1875 221.125 C184.00372803 222.02468506 183.81995605 222.92437012 183.63061523 223.85131836 C178.23619254 249.42933607 166.89370416 275.74631131 150.1875 296.125 C149.5275 296.125 148.8675 296.125 148.1875 296.125 C148.001875 296.785 147.81625 297.445 147.625 298.125 C145.57941226 302.39405268 142.61565357 305.86663706 139.1875 309.125 C138.5275 309.125 137.8675 309.125 137.1875 309.125 C136.878125 309.929375 136.878125 309.929375 136.5625 310.75 C134.65499574 314.04478009 132.13930616 316.71863628 129.1875 319.125 C128.5275 319.125 127.8675 319.125 127.1875 319.125 C127.1875 319.785 127.1875 320.445 127.1875 321.125 C123.71899903 324.35452945 119.92158764 327.20924833 116.1875 330.125 C115.21554687 330.888125 114.24359375 331.65125 113.2421875 332.4375 C100.99142957 341.84608209 88.22700081 348.86181684 74.1875 355.125 C73.14722656 355.599375 72.10695313 356.07375 71.03515625 356.5625 C59.4137675 361.66379547 47.22018279 364.8473791 34.8125 367.375 C33.61947266 367.61972046 33.61947266 367.61972046 32.40234375 367.86938477 C-12.5826904 376.60150038 -58.06778081 363.92843146 -96.8125 341.125 C-96.8125 340.465 -96.8125 339.805 -96.8125 339.125 C-97.39660645 339.0125293 -97.98071289 338.90005859 -98.58251953 338.78417969 C-101.02233647 338.06297258 -102.47543358 337.11475006 -104.4921875 335.578125 C-105.51505859 334.8046875 -105.51505859 334.8046875 -106.55859375 334.015625 C-107.26113281 333.47421875 -107.96367187 332.9328125 -108.6875 332.375 C-109.38230469 331.8490625 -110.07710938 331.323125 -110.79296875 330.78125 C-112.81229023 329.24489242 -114.81571791 327.69050948 -116.8125 326.125 C-117.42125977 325.65126953 -118.03001953 325.17753906 -118.65722656 324.68945312 C-120.08238029 323.54966488 -121.45375147 322.34318833 -122.8125 321.125 C-122.8125 320.465 -122.8125 319.805 -122.8125 319.125 C-123.37453125 318.8878125 -123.9365625 318.650625 -124.515625 318.40625 C-127.33144042 316.83552303 -129.29205416 314.91028536 -131.5625 312.625 C-132.36171875 311.8309375 -133.1609375 311.036875 -133.984375 310.21875 C-135.8125 308.125 -135.8125 308.125 -135.8125 306.125 C-136.4725 306.125 -137.1325 306.125 -137.8125 306.125 C-151.97539574 292.00017656 -162.06258296 272.30478141 -169.8125 254.125 C-170.11623535 253.42068848 -170.4199707 252.71637695 -170.73291016 251.99072266 C-179.79499435 230.62004567 -183.24173842 207.768385 -183.1875 184.6875 C-183.18728851 183.85383911 -183.18707703 183.02017822 -183.18685913 182.16125488 C-183.15230496 168.47256449 -182.11800382 155.45407614 -178.8125 142.125 C-178.61994629 141.31740234 -178.42739258 140.50980469 -178.22900391 139.67773438 C-172.82185325 117.36250945 -163.00133039 96.87156896 -149.8125 78.125 C-149.11898437 77.02800781 -148.42546875 75.93101562 -147.7109375 74.80078125 C-147.08445313 73.91777344 -146.45796875 73.03476563 -145.8125 72.125 C-145.1525 72.125 -144.4925 72.125 -143.8125 72.125 C-143.5546875 71.54878906 -143.296875 70.97257812 -143.03125 70.37890625 C-141.7076324 67.93106215 -140.1824228 66.11862273 -138.3125 64.0625 C-136.25434439 61.79067993 -134.52111829 59.68792743 -132.8125 57.125 C-132.1525 57.125 -131.4925 57.125 -130.8125 57.125 C-130.8125 56.465 -130.8125 55.805 -130.8125 55.125 C-130.1525 55.125 -129.4925 55.125 -128.8125 55.125 C-128.8125 54.465 -128.8125 53.805 -128.8125 53.125 C-128.1525 53.125 -127.4925 53.125 -126.8125 53.125 C-126.8125 52.465 -126.8125 51.805 -126.8125 51.125 C-125.23828125 49.5390625 -125.23828125 49.5390625 -123.125 47.75 C-122.39667969 47.13253906 -121.66835937 46.51507813 -120.91796875 45.87890625 C-120.22316406 45.30011719 -119.52835938 44.72132812 -118.8125 44.125 C-117.86375 43.320625 -116.915 42.51625 -115.9375 41.6875 C-113.8125 40.125 -113.8125 40.125 -111.8125 40.125 C-111.8125 39.465 -111.8125 38.805 -111.8125 38.125 C-109.67884932 36.50330286 -107.55490998 35.0212275 -105.3125 33.5625 C-104.63832031 33.11994873 -103.96414062 32.67739746 -103.26953125 32.22143555 C-71.61991303 11.70549194 -37.90646824 -0.11492613 0 0 Z M-123.8125 61.125 C-124.35358398 61.66205566 -124.89466797 62.19911133 -125.45214844 62.75244141 C-142.57443742 79.96009078 -154.78744424 100.69261317 -163.8125 123.125 C-164.27527344 124.26324219 -164.73804688 125.40148437 -165.21484375 126.57421875 C-170.85014153 141.32191295 -173.86730507 157.21771074 -174.0859375 172.99609375 C-174.09846558 173.82749878 -174.11099365 174.65890381 -174.12390137 175.51550293 C-174.35189848 194.2855179 -174.0769152 211.95195026 -168.8125 230.125 C-168.57192871 230.96482422 -168.33135742 231.80464844 -168.08349609 232.66992188 C-166.54003046 237.90797426 -164.76477399 243.02654169 -162.8125 248.125 C-162.15507812 249.88070312 -162.15507812 249.88070312 -161.484375 251.671875 C-144.75635916 293.39577657 -109.7678078 327.77104728 -69.12451172 346.35400391 C-38.51417026 359.40849688 -3.78552467 365.53828688 29.1875 359.125 C29.98124023 358.97434082 30.77498047 358.82368164 31.59277344 358.66845703 C64.87605179 352.20670903 94.95350209 338.37282547 119.93359375 315.16796875 C121.49792635 313.75003816 123.11674891 312.39086529 124.7734375 311.08203125 C128.39017257 308.15001787 131.19462444 304.6757708 134.1875 301.125 C134.96480469 300.22394531 135.74210937 299.32289063 136.54296875 298.39453125 C164.19589201 265.93986007 178.95676977 226.59646785 178.625 183.9375 C178.62162628 183.08915588 178.61825256 182.24081177 178.61477661 181.36676025 C178.3300315 131.74424718 157.10283122 90.13230623 122.4765625 55.40625 C98.09790888 32.30278749 67.14567801 16.97109727 34.1875 11.125 C32.82625 10.88160889 32.82625 10.88160889 31.4375 10.63330078 C-26.08939023 0.73565223 -82.67704655 20.20712673 -123.8125 61.125 Z " fill="#F9FAF8" transform="translate(247.8125,65.875)"/>
<path d="M0 0 C0.73476563 0.65871094 1.46953125 1.31742188 2.2265625 1.99609375 C2.87882812 2.54136719 3.53109375 3.08664063 4.203125 3.6484375 C30.17908019 25.5088607 49.96145868 55.98290764 58.2265625 88.99609375 C58.61134766 90.39408203 58.61134766 90.39408203 59.00390625 91.8203125 C69.84249673 132.20889094 62.46844695 178.17709644 41.8125 214.3125 C17.41827405 255.32011895 -20.88438483 283.73811281 -66.7734375 295.99609375 C-110.03985889 306.92234635 -155.58647595 298.45099768 -193.5859375 275.87109375 C-194.79443359 275.15348877 -194.79443359 275.15348877 -196.02734375 274.42138672 C-200.73719631 271.52218008 -204.88617985 268.32251742 -208.98461914 264.61181641 C-211.26893525 262.54854303 -213.67113851 260.65389762 -216.0859375 258.74609375 C-223.69064652 252.56064797 -230.77057387 245.76588216 -236.7734375 237.99609375 C-237.16297607 237.49303711 -237.55251465 236.98998047 -237.95385742 236.47167969 C-255.0586637 214.19350312 -265.41661983 191.33354119 -271.7734375 163.99609375 C-271.96196289 163.2165332 -272.15048828 162.43697266 -272.34472656 161.63378906 C-277.60803456 139.25261381 -276.02394917 114.20266957 -270.7734375 91.99609375 C-270.6074707 91.25858887 -270.44150391 90.52108398 -270.27050781 89.76123047 C-263.71126172 61.43602304 -247.57663734 35.89394283 -227.7734375 14.99609375 C-226.93167969 14.10148437 -226.08992188 13.206875 -225.22265625 12.28515625 C-211.86389274 -1.51825496 -195.86601355 -12.31194286 -178.7734375 -21.00390625 C-177.8040625 -21.50664063 -176.8346875 -22.009375 -175.8359375 -22.52734375 C-163.8974683 -28.40703983 -151.12126385 -31.31450764 -138.2109375 -34.25390625 C-137.49784424 -34.41713379 -136.78475098 -34.58036133 -136.05004883 -34.74853516 C-90.06917932 -44.82109703 -35.53206067 -30.85678953 0 0 Z M-157.7734375 -24.00390625 C-158.8253125 -23.67003906 -159.8771875 -23.33617188 -160.9609375 -22.9921875 C-176.89712282 -17.41037259 -192.90116175 -8.940776 -205.7734375 1.99609375 C-206.9306462 2.95354018 -208.08821975 3.91054575 -209.24609375 4.8671875 C-234.94185686 26.30959752 -253.66537946 52.95949567 -263.7734375 84.99609375 C-264.09699219 85.98738281 -264.42054688 86.97867188 -264.75390625 88 C-276.68399325 129.60390746 -269.29070446 174.55169962 -248.7734375 211.99609375 C-245.71414539 217.19666254 -242.32157464 222.11967963 -238.7734375 226.99609375 C-238.21527344 227.785 -237.65710938 228.57390625 -237.08203125 229.38671875 C-229.4196354 239.75687855 -219.96808067 250.08088664 -209.7734375 257.99609375 C-209.27328125 258.38684082 -208.773125 258.77758789 -208.2578125 259.18017578 C-201.08721211 264.73697993 -193.71030017 269.81800604 -185.8984375 274.43359375 C-185.22176025 274.83425049 -184.54508301 275.23490723 -183.84790039 275.64770508 C-163.52633136 287.37920899 -139.16896613 294.29937753 -115.7734375 294.99609375 C-114.8565918 295.02864258 -113.93974609 295.06119141 -112.99511719 295.09472656 C-89.20352052 295.84317527 -68.02007142 292.42939617 -45.7734375 283.99609375 C-45.10489746 283.74601562 -44.43635742 283.4959375 -43.74755859 283.23828125 C-7.75263799 269.54384582 25.8919796 237.89343926 42.2265625 202.99609375 C47.78744145 190.40079816 52.70571452 177.56697462 55.2265625 163.99609375 C55.37319336 163.21621094 55.51982422 162.43632812 55.67089844 161.6328125 C63.1337172 120.35459777 55.3778758 79.57584832 33.2265625 43.99609375 C31.31107673 41.25883818 29.29860171 38.61609794 27.2265625 35.99609375 C26.26169922 34.73539063 26.26169922 34.73539063 25.27734375 33.44921875 C21.4964731 28.65728381 17.56429661 24.02694452 13.4765625 19.49609375 C13.01677002 18.97950195 12.55697754 18.46291016 12.08325195 17.93066406 C9.62463266 15.24332559 7.47182447 13.57486984 4.2265625 11.99609375 C3.8965625 11.00609375 3.5665625 10.01609375 3.2265625 8.99609375 C1.74118438 7.52035339 1.74118438 7.52035339 -0.1328125 6.140625 C-0.82955078 5.6046167 -1.52628906 5.0686084 -2.24414062 4.51635742 C-2.99630859 3.95279541 -3.74847656 3.3892334 -4.5234375 2.80859375 C-5.29623047 2.22634033 -6.06902344 1.64408691 -6.86523438 1.04418945 C-18.43522833 -7.57469045 -30.5689231 -14.24777842 -43.7734375 -20.00390625 C-44.40556152 -20.28508301 -45.03768555 -20.56625977 -45.68896484 -20.85595703 C-80.1660967 -35.94711102 -122.40896366 -35.69788046 -157.7734375 -24.00390625 Z " fill="#2D737E" transform="translate(355.7734375,119.00390625)"/>
<path d="M0 0 C11.53039004 11.1156278 16.9598889 24.41920448 18.31420898 40.1328125 C19.00237415 46.82436331 21.44888558 51.73319022 25.1875 57.3125 C28.63521271 62.53662566 30.28124888 66.04830186 29.1875 72.3125 C26.66058255 75.34480095 23.70851435 77.55199283 20.1875 79.3125 C19.80185188 81.21571113 19.80185188 81.21571113 19.73046875 83.50390625 C19.66923828 84.36693359 19.60800781 85.22996094 19.54492188 86.11914062 C19.43336289 87.9284478 19.33148398 89.73838305 19.24023438 91.54882812 C18.77248894 97.81476451 17.53302089 102.60805703 13.1875 107.3125 C7.24118689 111.16813487 1.16121444 110.66731059 -5.75 110.5 C-6.81541016 110.48646484 -7.88082031 110.47292969 -8.97851562 110.45898438 C-11.59037588 110.42384724 -14.20116634 110.37465184 -16.8125 110.3125 C-16.8125 110.9725 -16.8125 111.6325 -16.8125 112.3125 C-17.53179687 112.92738281 -17.53179687 112.92738281 -18.265625 113.5546875 C-20.46769194 116.0570363 -20.29823409 118.14972123 -20.5625 121.4375 C-21.50899543 128.54410316 -24.10027581 132.12222408 -28.8125 137.3125 C-29.9743498 138.82113286 -31.12127072 140.34142957 -32.25 141.875 C-32.74371094 142.53628906 -33.23742187 143.19757813 -33.74609375 143.87890625 C-34.09800781 144.35199219 -34.44992188 144.82507813 -34.8125 145.3125 C-38.84174252 143.96941916 -40.20291597 141.30356765 -42.5 137.9375 C-43.40196406 136.64556817 -44.30431166 135.35390403 -45.20703125 134.0625 C-45.65127441 133.42183594 -46.09551758 132.78117188 -46.55322266 132.12109375 C-54.34643334 120.92836309 -62.68443906 110.10764019 -70.8984375 99.22265625 C-73.8838994 95.26305131 -76.85239285 91.29108469 -79.8125 87.3125 C-80.28526367 86.68005371 -80.75802734 86.04760742 -81.24511719 85.39599609 C-86.24037489 78.68872418 -90.90669544 72.23124225 -93.8125 64.3125 C-94.4003125 62.9821875 -94.4003125 62.9821875 -95 61.625 C-99.74036604 48.13318896 -97.47063184 29.76095024 -91.625 17.0625 C-83.10992931 1.53651782 -70.53493529 -7.41964569 -54.33984375 -13.63671875 C-35.64975745 -18.71437225 -14.34239121 -12.32976683 0 0 Z M-77.75 11.625 C-86.803033 23.48250518 -90.29176648 36.50442619 -88.8125 51.3125 C-86.0843493 63.30905553 -80.44724569 72.80058748 -72.8125 82.3125 C-70.96209624 84.73724187 -69.13755032 87.18114169 -67.3125 89.625 C-66.24484387 91.05212239 -65.17713398 92.47920456 -64.109375 93.90625 C-63.29243164 94.99873047 -63.29243164 94.99873047 -62.45898438 96.11328125 C-60.85572216 98.25476792 -59.24890801 100.39353221 -57.640625 102.53125 C-51.21172682 111.07880839 -44.86965608 119.68157164 -38.6171875 128.359375 C-37.89789063 129.35453125 -37.17859375 130.3496875 -36.4375 131.375 C-35.79039062 132.27347656 -35.14328125 133.17195312 -34.4765625 134.09765625 C-32.85582291 136.36289961 -32.85582291 136.36289961 -30.8125 138.3125 C-30.8031543 137.75900879 -30.79380859 137.20551758 -30.78417969 136.63525391 C-30.27773496 112.77773496 -30.27773496 112.77773496 -23.8125 106.3125 C-23.8125 105.3225 -23.8125 104.3325 -23.8125 103.3125 C-24.781875 102.8175 -25.75125 102.3225 -26.75 101.8125 C-35.51144815 96.74008265 -41.1450385 90.19862862 -45.8125 81.3125 C-46.43125 80.24 -47.05 79.1675 -47.6875 78.0625 C-48.95793941 74.95698145 -49.04995936 72.63693108 -48.8125 69.3125 C-46.5025 69.3125 -44.1925 69.3125 -41.8125 69.3125 C-41.68875 69.91835937 -41.565 70.52421875 -41.4375 71.1484375 C-38.72452353 82.16990441 -31.37400495 90.38972263 -21.8125 96.3125 C-14.74663586 99.72575985 -8.60388376 101.45870724 -0.75 101.5 C1.09271484 101.52126953 1.09271484 101.52126953 2.97265625 101.54296875 C6.33992422 101.56750575 6.33992422 101.56750575 9.1875 99.3125 C10.64945544 94.92663369 10.50500368 90.4157421 10.6171875 85.82421875 C10.83566653 80.66265162 11.68123168 76.8677729 14.1875 72.3125 C16.47871995 70.62965537 18.43104603 70.19664561 21.1875 69.3125 C20.55089055 65.27737546 18.46192185 62.43838073 16.25 59.0625 C12.27210138 52.74686656 10.53673318 48.07690881 9.8515625 40.69140625 C8.52953597 27.03539833 3.979277 16.30011254 -5.8125 6.3125 C-8.67996908 4.04441827 -11.65556467 2.14792752 -14.8125 0.3125 C-15.616875 -0.244375 -16.42125 -0.80125 -17.25 -1.375 C-37.91493723 -11.95948004 -62.90986428 -5.6023549 -77.75 11.625 Z " fill="#308594" transform="translate(285.8125,135.6875)"/>
<path d="M0 0 C3 1 3 1 5 4 C5.125 6.6875 5.125 6.6875 5 9 C1.86501708 10.85776765 -0.37471432 11.20140476 -4 11 C-4.144375 12.010625 -4.28875 13.02125 -4.4375 14.0625 C-4.77876628 16.45136396 -5.13828497 18.83784425 -5.53125 21.21875 C-6.04139048 25.33388321 -6.11171821 29.29938463 -6.0625 33.4375 C-6.05798828 34.16904297 -6.05347656 34.90058594 -6.04882812 35.65429688 C-6.03718148 37.43623419 -6.01925191 39.21812863 -6 41 C-5.34 41 -4.68 41 -4 41 C-3.34 39.68 -2.68 38.36 -2 37 C-1.67 37.66 -1.34 38.32 -1 39 C-3.39293335 43.30728003 -4.99792966 45.53213986 -9.77758789 47.4309082 C-14.41533843 48.61849433 -19.18514391 48.30254773 -23.9375 48.1875 C-25.00291016 48.17396484 -26.06832031 48.16042969 -27.16601562 48.14648438 C-29.77787588 48.11134724 -32.38866634 48.06215184 -35 48 C-35 48.66 -35 49.32 -35 50 C-35.47953125 50.40992188 -35.9590625 50.81984375 -36.453125 51.2421875 C-38.65519194 53.7445363 -38.48573409 55.83722123 -38.75 59.125 C-39.69649543 66.23160316 -42.28777581 69.80972408 -47 75 C-48.1618498 76.50863286 -49.30877072 78.02892957 -50.4375 79.5625 C-51.17806641 80.55443359 -51.17806641 80.55443359 -51.93359375 81.56640625 C-52.46146484 82.27603516 -52.46146484 82.27603516 -53 83 C-57.16018027 81.61327324 -58.66865251 78.6545717 -61.0625 75.1875 C-61.50916016 74.55779297 -61.95582031 73.92808594 -62.41601562 73.27929688 C-64.52075768 70.28106192 -66.50232838 67.35918436 -68 64 C-65.94870759 65.02564621 -63.90202112 66.05187117 -61.875 67.125 C-60.04279198 68.14096182 -60.04279198 68.14096182 -58 68 C-58.99 65.03 -58.99 65.03 -60 62 C-57.10115314 64.73319846 -54.61341827 67.41715612 -52.32421875 70.68359375 C-51.88553467 71.3067749 -51.44685059 71.92995605 -50.99487305 72.57202148 C-50.66656494 73.04325439 -50.33825684 73.5144873 -50 74 C-49.97421875 72.81664062 -49.9484375 71.63328125 -49.921875 70.4140625 C-49.56590884 59.27185035 -48.32498029 50.48747044 -42 41 C-42.85658203 40.84724609 -42.85658203 40.84724609 -43.73046875 40.69140625 C-53.39485732 37.74717772 -60.95027139 27.3364493 -65.5 18.875 C-67.8202491 14.41207189 -68.2220927 11.90291954 -67 7 C-64.6875 6.3125 -64.6875 6.3125 -62 6 C-59.41784927 8.02559694 -58.39854592 10.10194047 -57.25 13.125 C-52.75615964 23.59360539 -45.24332565 30.99806361 -34.75 35.3125 C-29.23842296 37.39250599 -24.81531924 38.1374015 -18.875 38.125 C-17.63492188 38.12757813 -16.39484375 38.13015625 -15.1171875 38.1328125 C-12.09276427 38.21668811 -12.09276427 38.21668811 -10 37 C-8.53804456 32.61413369 -8.68249632 28.1032421 -8.5703125 23.51171875 C-8.35153312 18.34305589 -7.41884109 14.59813511 -5 10 C-2.04955261 7.71340327 -0.74268873 7 3 7 C2.01 4.69 1.02 2.38 0 0 Z " fill="#377E89" transform="translate(304,198)"/>
<path d="M0 0 C3.05075084 -0.266487 5.89626179 -0.34757146 8.9453125 -0.29296875 C9.8303244 -0.28872391 10.7153363 -0.28447906 11.62716675 -0.28010559 C14.46008445 -0.26328259 17.29229652 -0.22562425 20.125 -0.1875 C22.04295849 -0.17245782 23.96092811 -0.15876861 25.87890625 -0.14648438 C30.58621031 -0.11336727 35.29298544 -0.06156055 40 0 C40 0.99 40 1.98 40 3 C39.14728516 3.12955078 39.14728516 3.12955078 38.27734375 3.26171875 C32.2819219 4.35270536 28.79499615 6.28143156 24 10 C23.34 10 22.68 10 22 10 C21.566875 10.88558594 21.566875 10.88558594 21.125 11.7890625 C17.45243443 19.00667401 12.5667428 25.48556756 7.84375 32.03515625 C5.77889419 34.90211788 3.74236831 37.78737891 1.71875 40.68359375 C1.1729126 41.46355713 0.6270752 42.24352051 0.06469727 43.04711914 C-1.01023371 44.58492363 -2.08271138 46.12444624 -3.15258789 47.66577148 C-3.63977295 48.36130127 -4.12695801 49.05683105 -4.62890625 49.7734375 C-5.06275635 50.39653809 -5.49660645 51.01963867 -5.94360352 51.66162109 C-6.46651978 52.32411865 -6.46651978 52.32411865 -7 53 C-7.33 53 -7.66 53 -8 53 C-8.34026959 48.286636 -8.5400723 43.70244773 -8 39 C-5.1875 36.375 -5.1875 36.375 -2 35 C1.66497908 30.82950656 2.37989978 26.94596721 2.37109375 21.5390625 C1.80549847 17.66920005 -0.08063791 14.68910787 -1.9453125 11.296875 C-3.38282906 8.16628337 -3.17145574 6.20197902 -2 3 C-1.34 2.01 -0.68 1.02 0 0 Z " fill="#E9E9E8" transform="translate(319,180)"/>
<path d="M0 0 C2.48828125 0.83984375 2.48828125 0.83984375 3.5703125 2.7734375 C3.81136719 3.59972656 4.05242187 4.42601562 4.30078125 5.27734375 C7.40663034 13.99617313 13.18592449 20.41303661 20.7578125 25.59765625 C22.48828125 26.83984375 22.48828125 26.83984375 24.42578125 29.08984375 C30.48504652 34.23103853 39.88863868 33.001052 47.36767578 32.85449219 C53.30130677 32.74635651 53.30130677 32.74635651 55.48828125 33.83984375 C55.17578125 35.71484375 55.17578125 35.71484375 54.48828125 37.83984375 C50.18777613 40.70684716 46.42151589 40.16976191 41.36328125 40.15234375 C40.450625 40.16845703 39.53796875 40.18457031 38.59765625 40.20117188 C26.06047798 40.21010149 15.81056867 35.05717836 6.67578125 26.52734375 C2.84190218 22.4452279 0.1698962 17.72508185 -2.51171875 12.83984375 C-3.15109375 11.76734375 -3.79046875 10.69484375 -4.44921875 9.58984375 C-5.75173523 6.21862462 -5.54940444 4.27218874 -4.51171875 0.83984375 C-2.51171875 -0.16015625 -2.51171875 -0.16015625 0 0 Z " fill="#2C8392" transform="translate(241.51171875,204.16015625)"/>
<path d="M0 0 C0.33 0 0.66 0 1 0 C1.33 3.3 1.66 6.6 2 10 C2.33 10 2.66 10 3 10 C3.06058594 10.62648437 3.12117188 11.25296875 3.18359375 11.8984375 C3.26738281 12.71570313 3.35117187 13.53296875 3.4375 14.375 C3.55931641 15.59316406 3.55931641 15.59316406 3.68359375 16.8359375 C3.89090114 19.04272805 3.89090114 19.04272805 5 21 C5.66 21 6.32 21 7 21 C8.35598892 23.15505382 9.68364722 25.32090248 11 27.5 C11.3815625 28.10070312 11.763125 28.70140625 12.15625 29.3203125 C14.99709319 34.08887071 15.6826835 37.45175022 15 43 C13.5390625 45.05859375 13.5390625 45.05859375 11.625 46.4375 C10.99851562 46.91058594 10.37203125 47.38367188 9.7265625 47.87109375 C8 49 8 49 6 50 C5.59781446 51.96857635 5.59781446 51.96857635 5.5078125 54.33203125 C5.44207031 55.21310547 5.37632812 56.09417969 5.30859375 57.00195312 C5.1869925 58.86348714 5.07231529 60.72548744 4.96484375 62.58789062 C4.43849002 69.40566112 4.43849002 69.40566112 2.0546875 72.63671875 C0 74 0 74 -2 74 C-6.18614282 65.62771436 -2.18701321 52.56580174 0 44 C2.64 43.34 5.28 42.68 8 42 C8.33498301 39.66834966 8.33498301 39.66834966 8 37 C6.68945377 35.64426252 5.35251497 34.31387169 4 33 C2.94952356 30.68895182 1.94992562 28.35416349 1 26 C0.46375 25.175 -0.0725 24.35 -0.625 23.5 C-4.30040371 16.8174478 -2.6409074 10.05814963 -1 3 C-0.67 2.01 -0.34 1.02 0 0 Z " fill="#2E8B9B" transform="translate(300,165)"/>
<path d="M0 0 C-0.56589844 0.18175781 -1.13179687 0.36351563 -1.71484375 0.55078125 C-2.81505859 0.92783203 -2.81505859 0.92783203 -3.9375 1.3125 C-4.66839844 1.55613281 -5.39929688 1.79976563 -6.15234375 2.05078125 C-8.35932024 2.91240441 -8.35932024 2.91240441 -9 6 C-6.69 6.33 -4.38 6.66 -2 7 C-4.6362209 8.7574806 -6.5633397 9.60479658 -9.5 10.625 C-21.52710094 15.41129527 -30.17787038 23.65994161 -35.56640625 35.41796875 C-41.03748769 49.2125758 -41.3860158 61.74544865 -37 76 C-37.99 76.495 -37.99 76.495 -39 77 C-39 75.68 -39 74.36 -39 73 C-39.66 73 -40.32 73 -41 73 C-45.31126962 58.12427553 -42.41794495 41.04439363 -35.25 27.75 C-34.51050818 26.49375486 -33.76469603 25.24106405 -33 24 C-32.01 24 -31.02 24 -30 24 C-29.89816406 23.41734375 -29.79632813 22.8346875 -29.69140625 22.234375 C-28.88482847 19.62780725 -27.75842991 18.26464586 -25.9375 16.25 C-25.11572266 15.32960937 -25.11572266 15.32960937 -24.27734375 14.390625 C-23.85582031 13.93171875 -23.43429688 13.4728125 -23 13 C-23.33 12.34 -23.66 11.68 -24 11 C-24.433125 11.495 -24.86625 11.99 -25.3125 12.5 C-27 14 -27 14 -30 14 C-30 15.32 -30 16.64 -30 18 C-31.8125 19.8125 -31.8125 19.8125 -34 21 C-34.99 20.67 -35.98 20.34 -37 20 C-29.59995693 10.56617026 -13.20666619 -4.40222206 0 0 Z " fill="#31808B" transform="translate(238,123)"/>
<path d="M0 0 C6.15234375 0.5859375 6.15234375 0.5859375 8 1 C8.33 1.66 8.66 2.32 9 3 C15.93550415 5.26980136 22.66029148 5.15709819 29.87866211 5.01416016 C35.81455037 4.90727519 35.81455037 4.90727519 38 6 C37.6875 7.875 37.6875 7.875 37 10 C32.69949488 12.86700341 28.93323464 12.32991816 23.875 12.3125 C22.50601562 12.33666992 22.50601562 12.33666992 21.109375 12.36132812 C12.19099181 12.36768025 5.15974978 10.3239165 -2 5 C-1.34 3.35 -0.68 1.7 0 0 Z " fill="#2C8899" transform="translate(259,232)"/>
<path d="M0 0 C2 2 2 2 2.23047829 3.79221535 C2.22126036 4.5204318 2.21204243 5.24864826 2.20254517 5.99893188 C2.19688034 6.83468246 2.19121552 7.67043304 2.18537903 8.5315094 C2.16883774 9.45004196 2.15229645 10.36857452 2.13525391 11.31494141 C2.12579239 12.28083694 2.11633087 13.24673248 2.10658264 14.24189758 C2.07281373 17.44530805 2.02472336 20.64833869 1.9765625 23.8515625 C1.95040479 26.06829831 1.92513704 28.2850448 1.90072632 30.50180054 C1.83398315 36.34466009 1.75511029 42.18729616 1.67376709 48.02996826 C1.57873279 55.03574453 1.49866443 62.04170567 1.41610718 69.04763794 C1.28891139 79.69861181 1.14262782 90.34917121 1 101 C-13.52 101 -28.04 101 -43 101 C-43 99.35 -43 97.7 -43 96 C-42.0925 95.649375 -41.185 95.29875 -40.25 94.9375 C-36.08142471 92.45238781 -35.10847374 90.29804263 -33 86 C-32.34 86.33 -31.68 86.66 -31 87 C-31.33 88.98 -31.66 90.96 -32 93 C-31.34 93.33 -30.68 93.66 -30 94 C-29.505 93.01 -29.505 93.01 -29 92 C-27.68 92.33 -26.36 92.66 -25 93 C-29.92085054 96.6906379 -32.57512121 97.3937803 -39 99 C-19.695 99.495 -19.695 99.495 0 100 C0 67 0 34 0 0 Z " fill="#5D5D5C" transform="translate(183,249)"/>
<path d="M0 0 C0.99 0.33 1.98 0.66 3 1 C3.16900997 6.92224722 3.32940523 12.84464561 3.48217773 18.76733398 C3.53520808 20.77781286 3.59050118 22.78823348 3.64819336 24.79858398 C3.7312051 27.70543861 3.80579678 30.61241265 3.87890625 33.51953125 C3.90594131 34.40332962 3.93297638 35.28712799 3.96083069 36.19770813 C4.10875542 42.52844932 3.68868089 48.70696931 3 55 C2.67 55 2.34 55 2 55 C-1.06487503 42.08586636 -1.16565754 28.96370027 -1.125 15.75 C-1.12886719 14.44675781 -1.13273437 13.14351562 -1.13671875 11.80078125 C-1.13542969 10.56199219 -1.13414063 9.32320312 -1.1328125 8.046875 C-1.13112061 6.37383301 -1.13112061 6.37383301 -1.12939453 4.66699219 C-1 2 -1 2 0 0 Z " fill="#337F8E" transform="translate(83,233)"/>
<path d="M0 0 C2.75927344 2.75927344 2.51783243 5.21154052 3 9 C3.33 9.33 3.66 9.66 4 10 C4.25815191 14.43110162 4.18525306 18.87479823 4.1875 23.3125 C4.19974609 24.54291016 4.21199219 25.77332031 4.22460938 27.04101562 C4.23706032 34.89756479 3.5733164 42.3010007 2 50 C1.34 50 0.68 50 0 50 C0 33.5 0 17 0 0 Z " fill="#2C808F" transform="translate(414,222)"/>
<path d="M0 0 C0.33 0 0.66 0 1 0 C1.02578125 1.12277344 1.0515625 2.24554688 1.078125 3.40234375 C1.39794344 12.91933312 1.77028169 20.87306872 8.0625 28.5 C10.0293236 30.19350214 10.0293236 30.19350214 13 31 C13 32.65 13 34.3 13 36 C-1.19 36 -15.38 36 -30 36 C-30 35.67 -30 35.34 -30 35 C-17.13 35 -4.26 35 9 35 C5.71299843 33.35649921 3.52069985 32.58678331 0 32 C0 31.34 0 30.68 0 30 C-0.66 29.67 -1.32 29.34 -2 29 C-1.46375 28.175 -0.9275 27.35 -0.375 26.5 C1.14751194 22.62451507 0.75822665 21.03003109 -0.4453125 17.14453125 C-1.89143526 11.55353549 -1.14584815 5.58600974 0 0 Z " fill="#7D7E7D" transform="translate(347,314)"/>
<path d="M0 0 C3.92488093 3.70060202 7.02215543 7.4906925 10 12 C10 12.66 10 13.32 10 14 C10.66 14.33 11.32 14.66 12 15 C10.35 16.98 8.7 18.96 7 21 C2.83981973 19.61327324 1.33134749 16.6545717 -1.0625 13.1875 C-1.50916016 12.55779297 -1.95582031 11.92808594 -2.41601562 11.27929688 C-4.52075768 8.28106192 -6.50232838 5.35918436 -8 2 C-5.94870759 3.02564621 -3.90202112 4.05187117 -1.875 5.125 C-0.04279198 6.14096182 -0.04279198 6.14096182 2 6 C1.34 4.02 0.68 2.04 0 0 Z " fill="#256B78" transform="translate(244,260)"/>
<path d="M0 0 C1.32 0.66 2.64 1.32 4 2 C4.72352158 8.78732147 4.89904842 13.70098804 0.5625 19.25 C-1.37109375 21.453125 -1.37109375 21.453125 -3 23 C-3.33 23 -3.66 23 -4 23 C-4.11608726 19.72946483 -4.18720711 16.4594582 -4.25 13.1875 C-4.28351563 12.25873047 -4.31703125 11.32996094 -4.3515625 10.37304688 C-4.36445313 9.48037109 -4.37734375 8.58769531 -4.390625 7.66796875 C-4.41157227 6.84578857 -4.43251953 6.0236084 -4.45410156 5.17651367 C-4 3 -4 3 -1.97558594 1.20825195 C-0.9976709 0.61016724 -0.9976709 0.61016724 0 0 Z " fill="#377F88" transform="translate(259,251)"/>
<path d="M0 0 C0.99 0.33 1.98 0.66 3 1 C3 1.66 3 2.32 3 3 C2.34 3 1.68 3 1 3 C0.7525 3.5775 0.505 4.155 0.25 4.75 C-1.16599656 7.29879381 -2.94723215 8.94723215 -5 11 C-5.33 11.99 -5.66 12.98 -6 14 C-6.99 14 -7.98 14 -9 14 C-9.2475 14.825 -9.495 15.65 -9.75 16.5 C-11.18704811 20.52373471 -13.02354515 24.21979024 -15 28 C-16.92837425 24.3977969 -17.48657288 22.13586947 -17 18 C-15.11256806 13.20490263 -12.8120166 10.15274427 -8 8 C-7.34 8 -6.68 8 -6 8 C-6 6.68 -6 5.36 -6 4 C-5.01 4 -4.02 4 -3 4 C-2.67 3.01 -2.34 2.02 -2 1 C-1.34 0.67 -0.68 0.34 0 0 Z " fill="#2C8D9F" transform="translate(214,133)"/>
<path d="M0 0 C0.33 0 0.66 0 1 0 C1.33 3.3 1.66 6.6 2 10 C2.33 10 2.66 10 3 10 C3.07347656 10.93972656 3.07347656 10.93972656 3.1484375 11.8984375 C3.22320312 12.71570313 3.29796875 13.53296875 3.375 14.375 C3.44460938 15.18710938 3.51421875 15.99921875 3.5859375 16.8359375 C3.82892588 19.20334191 3.82892588 19.20334191 6 21 C6.59834554 22.52056618 7.13506656 24.06612088 7.625 25.625 C7.88539063 26.44226563 8.14578125 27.25953125 8.4140625 28.1015625 C8.60742188 28.72804687 8.80078125 29.35453125 9 30 C8.01 30.33 7.02 30.66 6 31 C0.44962482 25.7496451 -2.62264956 21.79857582 -3 14 C-2.390489 9.2176829 -1.52539344 4.57618033 0 0 Z " fill="#2C8F9E" transform="translate(300,165)"/>
<path d="M0 0 C4.62 1.32 9.24 2.64 14 4 C14 4.33 14 4.66 14 5 C11.69 5.33 9.38 5.66 7 6 C7 6.66 7 7.32 7 8 C6.52949219 8.39832031 6.05898438 8.79664063 5.57421875 9.20703125 C3.27647458 11.82406493 3.2518163 14.27435026 2.8125 17.6875 C2.65394531 18.86699219 2.49539063 20.04648437 2.33203125 21.26171875 C2.22246094 22.16535156 2.11289062 23.06898438 2 24 C1.67 24 1.34 24 1 24 C0.67 20.37 0.34 16.74 0 13 C-0.99 12.67 -1.98 12.34 -3 12 C-3.66 12.66 -4.32 13.32 -5 14 C-6 11 -6 11 -5.29296875 9.0625 C-4.74576172 8.0415625 -4.74576172 8.0415625 -4.1875 7 C-3.83042969 6.319375 -3.47335937 5.63875 -3.10546875 4.9375 C-2.14192431 3.24874367 -1.07850549 1.61775824 0 0 Z " fill="#226773" transform="translate(262,240)"/>
<path d="M0 0 C0.33 0 0.66 0 1 0 C1 1.65 1 3.3 1 5 C0.071875 5.4125 -0.85625 5.825 -1.8125 6.25 C-7.68169669 9.47230407 -8.87648968 13.93282765 -11 20 C-11.99 19.01 -12.98 18.02 -14 17 C-13.67 16.34 -13.34 15.68 -13 15 C-13.33 14.01 -13.66 13.02 -14 12 C-13.67 11.34 -13.34 10.68 -13 10 C-14.65 10.66 -16.3 11.32 -18 12 C-18 11.34 -18 10.68 -18 10 C-12.40286597 5.01153775 -7.39725495 3.23483349 0 3 C0 2.01 0 1.02 0 0 Z M-20 13 C-19.67 13.66 -19.34 14.32 -19 15 C-19.66 14.67 -20.32 14.34 -21 14 C-20.67 13.67 -20.34 13.34 -20 13 Z " fill="#BFC0BF" transform="translate(359,180)"/>
<path d="M0 0 C15.71919579 -0.73492344 28.06584104 2.34386871 42 10 C42 10.99 42 11.98 42 13 C40.68 13 39.36 13 38 13 C38 12.34 38 11.68 38 11 C37.401875 10.896875 36.80375 10.79375 36.1875 10.6875 C34 10 34 10 32.5 8.4375 C30.86494057 6.53872976 30.86494057 6.53872976 27 7 C27 6.34 27 5.68 27 5 C18.00927453 3.59613257 9.01055619 2.2698535 0 1 C0 0.67 0 0.34 0 0 Z " fill="#367F8B" transform="translate(238,121)"/>
<path d="M0 0 C2.44958298 2.35536825 4.63298406 4.78833797 6.75 7.4375 C9.95393875 11.24936559 13.66914952 13.61473463 18 16 C15 17 15 17 11 17 C11.33 17.66 11.66 18.32 12 19 C10.02 19.99 10.02 19.99 8 21 C5.69 19.02 3.38 17.04 1 15 C4 14 4 14 6 14 C6.33 13.34 6.66 12.68 7 12 C4.78071806 9.09197539 3.07030857 7.04687238 0 5 C-0.1875 2.375 -0.1875 2.375 0 0 Z " fill="#287E8D" transform="translate(248,216)"/>
<path d="M0 0 C-0.84884766 0.27263672 -0.84884766 0.27263672 -1.71484375 0.55078125 C-2.44832031 0.80214844 -3.18179688 1.05351563 -3.9375 1.3125 C-4.66839844 1.55613281 -5.39929688 1.79976563 -6.15234375 2.05078125 C-8.35932024 2.91240441 -8.35932024 2.91240441 -9 6 C-6.69 6.33 -4.38 6.66 -2 7 C-4.68234531 8.7882302 -6.95514077 9.85190382 -9.9375 11 C-13.04619256 12.20033981 -16.04219369 13.46276424 -19 15 C-17.5361389 10.60841671 -15.02168662 10.12052567 -11 8 C-13.8424854 6.42726432 -13.8424854 6.42726432 -17 6 C-17.33 6.66 -17.66 7.32 -18 8 C-19.65 8 -21.3 8 -23 8 C-20.55506983 5.19407343 -18.00420037 3.88406756 -14.625 2.375 C-13.68914062 1.94960937 -12.75328125 1.52421875 -11.7890625 1.0859375 C-7.54880039 -0.5650329 -4.39989456 -1.46663152 0 0 Z " fill="#397F89" transform="translate(238,123)"/>
<path d="M0 0 C9.27199159 12.1399049 9.27199159 12.1399049 9.8125 18.25 C8.71395527 23.32020643 6.2313577 25.23334304 2 28 C1.34 28.33 0.68 28.66 0 29 C-0.46853709 31.03179594 -0.46853709 31.03179594 -0.6328125 33.47265625 C-0.71660156 34.37177734 -0.80039062 35.27089844 -0.88671875 36.19726562 C-0.96535156 37.14279297 -1.04398437 38.08832031 -1.125 39.0625 C-1.21136719 40.01189453 -1.29773438 40.96128906 -1.38671875 41.93945312 C-1.59954368 44.29235092 -1.80357031 46.64568595 -2 49 C-2.33 49 -2.66 49 -3 49 C-3.11667875 45.77113991 -3.18740546 42.54282555 -3.25 39.3125 C-3.28351563 38.40048828 -3.31703125 37.48847656 -3.3515625 36.54882812 C-3.41452404 32.22022226 -3.43009298 29.71439173 -1.15625 25.9375 C1.1407684 23.87351245 3.06006565 22.89831327 6 22 C6.91262511 19.26212466 7.30148492 17.83006811 7 15 C5.38796223 12.00380415 3.55871062 9.30725715 1.56640625 6.55078125 C0 4 0 4 0 0 Z " fill="#407F87" transform="translate(306,186)"/>
<path d="M0 0 C4.27230326 0.60667983 8.12232421 1.62500438 12.1875 3.0625 C16.49402693 4.59346512 16.49402693 4.59346512 21 5 C21 5.66 21 6.32 21 7 C22.32 7 23.64 7 25 7 C25 7.66 25 8.32 25 9 C15.63891823 10.18940804 8.34038029 6.73649037 0 3 C0 2.01 0 1.02 0 0 Z " fill="#257787" transform="translate(182,402)"/>
<path d="M0 0 C0.33 0 0.66 0 1 0 C1.33 3.96 1.66 7.92 2 12 C2.66 12 3.32 12 4 12 C4.05422947 13.4370809 4.09289723 14.87475462 4.125 16.3125 C4.14820313 17.11300781 4.17140625 17.91351563 4.1953125 18.73828125 C4 21 4 21 2 24 C-3.97305389 12.20321856 -3.97305389 12.20321856 -3 6 C-1.5 2.5625 -1.5 2.5625 0 0 Z " fill="#288C9D" transform="translate(195,184)"/>
<path d="M0 0 C5.1711115 4.54431011 8.44663108 10.15281368 12 16 C11.01 16 10.02 16 9 16 C8.34 17.32 7.68 18.64 7 20 C6.69707031 19.43152344 6.39414062 18.86304688 6.08203125 18.27734375 C3.35066454 13.2432248 0.42063456 8.59342355 -3 4 C-2.34 3.67 -1.68 3.34 -1 3 C-1 3.66 -1 4.32 -1 5 C-0.34 5 0.32 5 1 5 C0.67 3.35 0.34 1.7 0 0 Z " fill="#2B6E7D" transform="translate(385,151)"/>
<path d="M0 0 C2.475 0.495 2.475 0.495 5 1 C5.66 3.31 6.32 5.62 7 8 C9.31 8.33 11.62 8.66 14 9 C13.67 7.68 13.34 6.36 13 5 C15.42776667 6.29480889 16.76967674 7.35838519 17.7109375 9.98046875 C18.19782198 11.9738726 18.60391861 13.98658625 19 16 C17.125 16.61328125 17.125 16.61328125 15 17 C13 15.1875 13 15.1875 11 13 C10.01 12.566875 10.01 12.566875 9 12.125 C5.98281632 10.42783418 4.77635978 7.92239834 3 5 C2.4225 4.05125 1.845 3.1025 1.25 2.125 C0.8375 1.42375 0.425 0.7225 0 0 Z " fill="#2B7A88" transform="translate(227,250)"/>
<path d="M0 0 C0.33 0 0.66 0 1 0 C1.05038777 3.87365665 1.08617252 7.7471799 1.10986328 11.62109375 C1.12456776 13.5677768 1.15001202 15.51436947 1.17578125 17.4609375 C1.21965187 26.05957851 0.94562986 34.58707834 -1 43 C-1.66 43.66 -2.32 44.32 -3 45 C-3.33 43.68 -3.66 42.36 -4 41 C-4.66 41.66 -5.32 42.32 -6 43 C-5.67 37.72 -5.34 32.44 -5 27 C-4.67 27 -4.34 27 -4 27 C-4 30.3 -4 33.6 -4 37 C-3.34 37 -2.68 37 -2 37 C-1.22472267 28.58705191 -0.74150316 20.19231713 -0.4375 11.75 C-0.37272461 10.04263672 -0.37272461 10.04263672 -0.30664062 8.30078125 C-0.20201199 5.53393504 -0.0998311 2.76702274 0 0 Z " fill="#2D6D76" transform="translate(418,235)"/>
<path d="M0 0 C-2 2 -2 2 -5.4765625 2.1953125 C-6.85950968 2.18201493 -8.24238654 2.15816232 -9.625 2.125 C-10.33140625 2.11597656 -11.0378125 2.10695313 -11.765625 2.09765625 C-13.51056098 2.07407603 -15.25532295 2.03820461 -17 2 C-17 1.34 -17 0.68 -17 0 C-17.6703125 0.47050781 -18.340625 0.94101563 -19.03125 1.42578125 C-22.58134378 3.30826519 -25.51714816 3.72150634 -29.5 4.1875 C-31.43359375 4.42533203 -31.43359375 4.42533203 -33.40625 4.66796875 C-36.3058516 4.93586672 -39.09309377 5.07267266 -42 5 C-42 4.34 -42 3.68 -42 3 C-27.64254867 -0.62829301 -14.73929258 -1.3445482 0 0 Z " fill="#2B8291" transform="translate(256,84)"/>
<path d="M0 0 C-8.86236724 5.09379052 -22.01354784 3.11405846 -32 3 C-29.29922085 1.53454295 -26.94523975 0.65493072 -23.91796875 0.1484375 C-23.15033203 0.01953125 -22.38269531 -0.109375 -21.59179688 -0.2421875 C-20.79837891 -0.36851562 -20.00496094 -0.49484375 -19.1875 -0.625 C-18.40568359 -0.7590625 -17.62386719 -0.893125 -16.81835938 -1.03125 C-4.55815361 -3.03876907 -4.55815361 -3.03876907 0 0 Z " fill="#287A87" transform="translate(288,414)"/>
<path d="M0 0 C2.75167577 3.2858246 4.21933799 6.63627487 5.75 10.625 C6.19859375 11.77226562 6.6471875 12.91953125 7.109375 14.1015625 C8 17 8 17 7 19 C6.34 18.67 5.68 18.34 5 18 C5 18.99 5 19.98 5 21 C4.34 21 3.68 21 3 21 C2.16260219 18.8765984 1.33019717 16.7512272 0.5 14.625 C-0.19609375 12.84996094 -0.19609375 12.84996094 -0.90625 11.0390625 C-2 8 -2 8 -2 6 C-1.34 5.34 -0.68 4.68 0 4 C0 2.68 0 1.36 0 0 Z " fill="#286F79" transform="translate(403,180)"/>
<path d="M0 0 C2.64 0 5.28 0 8 0 C7.67 0.66 7.34 1.32 7 2 C9.97 3.485 9.97 3.485 13 5 C12.01 6.485 12.01 6.485 11 8 C11.33 8.99 11.66 9.98 12 11 C11.0625 13.1875 11.0625 13.1875 10 15 C9.46375 13.9275 8.9275 12.855 8.375 11.75 C6.25970818 7.96834521 3.60300057 6.37470492 0 4 C0 2.68 0 1.36 0 0 Z " fill="#989996" transform="translate(140,180)"/>
<path d="M0 0 C0.33 1.65 0.66 3.3 1 5 C-2.3 7.64 -5.6 10.28 -9 13 C-9.33 12.01 -9.66 11.02 -10 10 C-11.65 10.33 -13.3 10.66 -15 11 C-12.27376342 8.18662344 -9.459781 5.66417643 -6.375 3.25 C-5.59898437 2.63640625 -4.82296875 2.0228125 -4.0234375 1.390625 C-2 0 -2 0 0 0 Z " fill="#2B6B77" transform="translate(354,377)"/>
<path d="M0 0 C0.66 0.33 1.32 0.66 2 1 C1.67 2.98 1.34 4.96 1 7 C1.66 7.33 2.32 7.66 3 8 C3.33 7.34 3.66 6.68 4 6 C5.32 6.33 6.64 6.66 8 7 C2.74429747 11.26138043 -2.37782792 12.10447495 -9 13 C-9 12.01 -9 11.02 -9 10 C-7.6078125 9.1028125 -7.6078125 9.1028125 -6.1875 8.1875 C-2.657201 5.76474579 -1.59680539 3.90330207 0 0 Z " fill="#969897" transform="translate(150,335)"/>
<path d="M0 0 C-0.1328125 1.859375 -0.1328125 1.859375 -1 4 C-3.6171875 5.265625 -3.6171875 5.265625 -6.875 6.25 C-7.94492187 6.58515625 -9.01484375 6.9203125 -10.1171875 7.265625 C-13 8 -13 8 -16 8 C-15.8125 6.1875 -15.8125 6.1875 -15 4 C-9.61077283 0.26899658 -6.40563119 -0.10331663 0 0 Z " fill="#2C7882" transform="translate(315,403)"/>
<path d="M0 0 C2.4464076 3.66961141 2.96149344 7.17802309 3.6875 11.4375 C3.82994141 12.20126953 3.97238281 12.96503906 4.11914062 13.75195312 C4.3134668 14.86280273 4.3134668 14.86280273 4.51171875 15.99609375 C4.62990967 16.66825928 4.74810059 17.3404248 4.86987305 18.03295898 C5.01495144 20.22601082 4.63457442 21.90704331 4 24 C3 23 3 23 2 16 C1.67 21.28 1.34 26.56 1 32 C0.67 32 0.34 32 0 32 C-0.19706355 28.08375299 -0.38099159 24.16699634 -0.5625 20.25 C-0.61857422 19.13882813 -0.67464844 18.02765625 -0.73242188 16.8828125 C-0.78076172 15.81289062 -0.82910156 14.74296875 -0.87890625 13.640625 C-0.9260376 12.65610352 -0.97316895 11.67158203 -1.02172852 10.65722656 C-1.00166036 8.2030484 -0.62834127 6.34895064 0 4 C0 2.68 0 1.36 0 0 Z " fill="#326F7B" transform="translate(413,208)"/>
<path d="M0 0 C0.66 2.31 1.32 4.62 2 7 C2.99 7 3.98 7 5 7 C4.25 11.75 4.25 11.75 2 14 C-1.54294351 10.82043531 -3.61816787 8.83654037 -4 4 C-4 3.01 -4 2.02 -4 1 C-2 0 -2 0 0 0 Z " fill="#308798" transform="translate(290,143)"/>
<path d="M0 0 C1.14626322 0.97866338 2.29199788 1.95794587 3.4375 2.9375 C4.07558594 3.48277344 4.71367187 4.02804688 5.37109375 4.58984375 C6.26991149 5.36795695 7.15936528 6.15936528 8 7 C7.71269945 9.33944736 7.38063221 11.6739143 7 14 C5.125 13.75 5.125 13.75 3 13 C1.27898465 10.41847698 1 9.15081975 1 6 C0.34 6 -0.32 6 -1 6 C-0.67 4.02 -0.34 2.04 0 0 Z " fill="#258799" transform="translate(209,215)"/>
<path d="M0 0 C0.99 0.33 1.98 0.66 3 1 C3 1.66 3 2.32 3 3 C2.34 3 1.68 3 1 3 C0.7525 3.5775 0.505 4.155 0.25 4.75 C-1.16599656 7.29879381 -2.94723215 8.94723215 -5 11 C-5.33 11.99 -5.66 12.98 -6 14 C-6.66 14 -7.32 14 -8 14 C-8.33 12.35 -8.66 10.7 -9 9 C-8.01 8.67 -7.02 8.34 -6 8 C-6 6.68 -6 5.36 -6 4 C-5.01 4 -4.02 4 -3 4 C-2.67 3.01 -2.34 2.02 -2 1 C-1.34 0.67 -0.68 0.34 0 0 Z " fill="#268899" transform="translate(214,133)"/>
<path d="M0 0 C7.03482474 -0.23668569 13.1834265 0.2120463 20 2 C19.67 2.66 19.34 3.32 19 4 C11.6094524 4.14715692 4.35575165 3.70776992 -3 3 C-2.01 2.67 -1.02 2.34 0 2 C0 1.34 0 0.68 0 0 Z " fill="#2C7F89" transform="translate(221,413)"/>
<path d="M0 0 C6.13053511 -0.32712342 10.62669111 -0.39366878 16 3 C16 3.99 16 4.98 16 6 C16.7425 6.28875 17.485 6.5775 18.25 6.875 C20.56739797 7.82302644 22.77917115 8.84845911 25 10 C24.67 10.99 24.34 11.98 24 13 C23.40832031 12.60167969 22.81664062 12.20335937 22.20703125 11.79296875 C20.57378817 10.69792323 18.93690036 9.608299 17.296875 8.5234375 C15.70779613 7.46945662 14.13029081 6.39789364 12.5625 5.3125 C8.57459791 3.269916 4.30993741 2.18000228 0 1 C0 0.67 0 0.34 0 0 Z " fill="#397B84" transform="translate(256,130)"/>
<path d="M0 0 C3.55591802 1.30908132 6.55490999 2.87260441 9.6875 5 C10.83798828 5.7734375 10.83798828 5.7734375 12.01171875 6.5625 C14 8 14 8 16 10 C16 10.99 16 11.98 16 13 C12.56072421 11.7580393 9.74792181 10.44259716 7 8 C7 7.34 7 6.68 7 6 C6.401875 5.71125 5.80375 5.4225 5.1875 5.125 C3 4 3 4 0 2 C0 1.34 0 0.68 0 0 Z " fill="#257381" transform="translate(136,371)"/>
<path d="M0 0 C0.66 0.66 1.32 1.32 2 2 C-0.35824954 6.24484917 -2.17570307 8.79676241 -6.94140625 10.5390625 C-12.87403291 11.86743052 -19.10297537 11.24147887 -25 10 C-25 9.67 -25 9.34 -25 9 C-23.83082031 8.93941406 -22.66164063 8.87882813 -21.45703125 8.81640625 C-19.90884386 8.73195966 -18.36066732 8.64731375 -16.8125 8.5625 C-16.04357422 8.52318359 -15.27464844 8.48386719 -14.48242188 8.44335938 C-8.66960791 8.18115762 -8.66960791 8.18115762 -3 7 C-1.67518454 4.60470331 -1.67518454 4.60470331 -1 2 C-0.67 1.34 -0.34 0.68 0 0 Z " fill="#377279" transform="translate(301,235)"/>
<path d="M0 0 C1.89213369 2.38573379 3.02391783 4.07175348 4 7 C4.66 6.67 5.32 6.34 6 6 C5.67 7.65 5.34 9.3 5 11 C3.1875 11.6875 3.1875 11.6875 1 12 C-0.75 10.9375 -0.75 10.9375 -2 9 C-2.42478586 4.92205575 -2.31282587 3.46923881 0 0 Z " fill="#218895" transform="translate(202,205)"/>
<path d="M0 0 C1.58294782 -0.05437607 3.16644256 -0.09296271 4.75 -0.125 C5.63171875 -0.14820312 6.5134375 -0.17140625 7.421875 -0.1953125 C10.1135858 0.00860498 11.69904974 0.63448279 14 2 C14 3.32 14 4.64 14 6 C10.37 5.34 6.74 4.68 3 4 C3 3.01 3 2.02 3 1 C2.01 0.67 1.02 0.34 0 0 Z " fill="#2E7F8B" transform="translate(301,93)"/>
<path d="M0 0 C0.66 0.33 1.32 0.66 2 1 C2.02719556 3.37507855 2.04693247 5.74983964 2.0625 8.125 C2.07087891 8.79015625 2.07925781 9.4553125 2.08789062 10.140625 C2.10782292 14.20681354 1.78890161 18.0120092 1 22 C0.67 22 0.34 22 0 22 C-1.2003299 15.54822678 -2.98206452 5.96412904 0 0 Z " fill="#318598" transform="translate(83,233)"/>
<path d="M0 0 C3.82235305 3.29513194 5.27995497 6.35587843 7 11 C7 11.66 7 12.32 7 13 C6.34 13 5.68 13 5 13 C4.67 13.66 4.34 14.32 4 15 C3.34 14.67 2.68 14.34 2 14 C2 13.34 2 12.68 2 12 C1.34 12 0.68 12 0 12 C-0.33 10.68 -0.66 9.36 -1 8 C0.32 8 1.64 8 3 8 C2.505 7.05125 2.01 6.1025 1.5 5.125 C0 2 0 2 0 0 Z " fill="#2D8291" transform="translate(234,246)"/>
<path d="M0 0 C4.07892058 6.11838087 4.2993055 13.10334376 4.75390625 20.265625 C4.96651749 22.62797207 5.34529378 24.72746601 6 27 C5.34 27.33 4.68 27.66 4 28 C3.34 24.37 2.68 20.74 2 17 C1.67 17 1.34 17 1 17 C0.67 11.39 0.34 5.78 0 0 Z " fill="#37808A" transform="translate(300,159)"/>
<path d="M0 0 C8.91 0 17.82 0 27 0 C27 1.65 27 3.3 27 5 C26.67 4.34 26.34 3.68 26 3 C24.68 3.33 23.36 3.66 22 4 C21.67 3.34 21.34 2.68 21 2 C14.4 2 7.8 2 1 2 C0.67 1.34 0.34 0.68 0 0 Z " fill="#A7A8A6" transform="translate(155,180)"/>
<path d="M0 0 C0.33 0 0.66 0 1 0 C1.24849534 2.93703525 1.47448285 5.87286332 1.6875 8.8125 C1.76033203 9.64587891 1.83316406 10.47925781 1.90820312 11.33789062 C1.96298828 12.14033203 2.01777344 12.94277344 2.07421875 13.76953125 C2.13182373 14.50792236 2.18942871 15.24631348 2.2487793 16.00708008 C1.92886446 18.56985222 0.95066193 19.38819592 -1 21 C-1.02888146 17.68751813 -1.04675799 14.37506833 -1.0625 11.0625 C-1.07087891 10.11697266 -1.07925781 9.17144531 -1.08789062 8.19726562 C-1.09111328 7.29814453 -1.09433594 6.39902344 -1.09765625 5.47265625 C-1.10289307 4.64000244 -1.10812988 3.80734863 -1.11352539 2.94946289 C-1 1 -1 1 0 0 Z " fill="#3A7C87" transform="translate(256,253)"/>
<path d="M0 0 C-0.36197896 2.62434747 -0.82656057 3.82013689 -2.6875 5.75 C-5.60427292 7.32663401 -7.73290013 7.22275681 -11 7 C-9.47875703 3.95751406 -8.55545364 2.29161316 -5.5 0.6875 C-3 0 -3 0 0 0 Z " fill="#277582" transform="translate(344,387)"/>
<path d="M0 0 C1.32 0 2.64 0 4 0 C5.34721372 7.47091243 5.34721372 7.47091243 3.6875 10 C2 11 2 11 0 11 C0 7.37 0 3.74 0 0 Z " fill="#298C9C" transform="translate(257,255)"/>
<path d="M0 0 C4.62 1.32 9.24 2.64 14 4 C14 4.33 14 4.66 14 5 C12.865625 5.12375 11.73125 5.2475 10.5625 5.375 C8.7990625 5.684375 8.7990625 5.684375 7 6 C6.67 6.66 6.34 7.32 6 8 C5.62875 7.505 5.2575 7.01 4.875 6.5 C2.25305607 4.40244486 0.26157528 4.78256165 -3 5 C-2.01 3.35 -1.02 1.7 0 0 Z " fill="#0B434C" transform="translate(262,240)"/>
<path d="M0 0 C4.54109672 4.26587874 8.24735246 9.03612328 12 14 C11.01 15.485 11.01 15.485 10 17 C9.34 17 8.68 17 8 17 C6.11608215 13.73454239 5.50712033 10.71888239 5 7 C4.34 7 3.68 7 3 7 C0 2.61538462 0 2.61538462 0 0 Z " fill="#397883" transform="translate(221,229)"/>
<path d="M0 0 C-1.00203321 3.00609963 -1.60028446 4.06176821 -4 6 C-4.99 6 -5.98 6 -7 6 C-7 7.32 -7 8.64 -7 10 C-8.8125 11.8125 -8.8125 11.8125 -11 13 C-11.99 12.67 -12.98 12.34 -14 12 C-3.89320388 0 -3.89320388 0 0 0 Z " fill="#2F8187" transform="translate(215,131)"/>
<path d="M0 0 C0.2226746 1.43534841 0.42761906 2.87345525 0.625 4.3125 C0.74101562 5.11300781 0.85703125 5.91351563 0.9765625 6.73828125 C1 9 1 9 -1 12 C-1.99 12 -2.98 12 -4 12 C-4.08131463 10.56344146 -4.13933559 9.1255517 -4.1875 7.6875 C-4.22230469 6.88699219 -4.25710937 6.08648437 -4.29296875 5.26171875 C-3.98428663 2.87869278 -2.85980321 0 0 0 Z " fill="#298FA0" transform="translate(195,169)"/>
<path d="M0 0 C-1.26941497 3.91402949 -2.51167694 5.79072873 -6 8 C-7.125 5.6875 -7.125 5.6875 -8 3 C-5.45189726 -0.82215411 -4.39145359 -1.46381786 0 0 Z " fill="#307782" transform="translate(390,343)"/>
<path d="M0 0 C0.66 0 1.32 0 2 0 C2.02725341 1.7290774 2.04650987 3.45828176 2.0625 5.1875 C2.07410156 6.15042969 2.08570313 7.11335938 2.09765625 8.10546875 C2.00486622 10.85576513 1.62111685 13.32479591 1 16 C0.34 16 -0.32 16 -1 16 C-1.02701408 13.89590361 -1.04640223 11.79170822 -1.0625 9.6875 C-1.07410156 8.51574219 -1.08570313 7.34398437 -1.09765625 6.13671875 C-1 3 -1 3 0 0 Z " fill="#1F7D8B" transform="translate(415,256)"/>
<path d="M0 0 C2.475 0.99 2.475 0.99 5 2 C4.01 2.33 3.02 2.66 2 3 C2 3.66 2 4.32 2 5 C2.70125 5.268125 3.4025 5.53625 4.125 5.8125 C7.1649824 7.0681449 10.0727774 8.50235123 13 10 C12.67 10.66 12.34 11.32 12 12 C9.5610642 10.87802953 7.12384745 9.75256576 4.6875 8.625 C3.99720703 8.30789062 3.30691406 7.99078125 2.59570312 7.6640625 C-0.42766067 6.26192277 -3.22156305 4.8522913 -6 3 C-3.03 3.495 -3.03 3.495 0 4 C0 2.68 0 1.36 0 0 Z " fill="#326F7B" transform="translate(315,95)"/>
<path d="M0 0 C0 0.66 0 1.32 0 2 C-1.98 2.99 -1.98 2.99 -4 4 C-3.01 4.66 -2.02 5.32 -1 6 C-4.465 7.485 -4.465 7.485 -8 9 C-7.67 7.68 -7.34 6.36 -7 5 C-7.7425 5.350625 -8.485 5.70125 -9.25 6.0625 C-12.21122875 7.0720098 -13.12062561 6.87980884 -16 6 C-15.15695313 5.65066406 -14.31390625 5.30132812 -13.4453125 4.94140625 C-12.34960938 4.48636719 -11.25390625 4.03132813 -10.125 3.5625 C-9.03445312 3.11003906 -7.94390625 2.65757813 -6.8203125 2.19140625 C-1.63278689 0 -1.63278689 0 0 0 Z " fill="#2E6E79" transform="translate(190,93)"/>
<path d="M0 0 C2.95929119 2.75520215 5.03681826 5.46627288 7 9 C6.01 9 5.02 9 4 9 C3.67 9.66 3.34 10.32 3 11 C2.01 11 1.02 11 0 11 C0 7.37 0 3.74 0 0 Z " fill="#9C9E9D" transform="translate(168,205)"/>
<path d="M0 0 C2.9719385 1.12451727 5.33440687 2.22293791 8 4 C7.67 4.99 7.34 5.98 7 7 C4.69 6.67 2.38 6.34 0 6 C0 4.02 0 2.04 0 0 Z " fill="#2A7583" transform="translate(153,383)"/>
<path d="M0 0 C0.33 0 0.66 0 1 0 C1 1.65 1 3.3 1 5 C0.071875 5.45375 -0.85625 5.9075 -1.8125 6.375 C-5.03921389 7.9421633 -5.03921389 7.9421633 -8 10 C-8.33 9.01 -8.66 8.02 -9 7 C-9.66 6.67 -10.32 6.34 -11 6 C-8.60236815 3.60236815 -7.66726502 3.65719414 -4.375 3.375 C-3.55773437 3.30023438 -2.74046875 3.22546875 -1.8984375 3.1484375 C-1.27195312 3.09945312 -0.64546875 3.05046875 0 3 C0 2.01 0 1.02 0 0 Z " fill="#B2B2B0" transform="translate(359,180)"/>
<path d="M0 0 C2.475 0.495 2.475 0.495 5 1 C4.67 4.3 4.34 7.6 4 11 C0.88776687 6.85035583 0.47996422 4.99162787 0 0 Z " fill="#208C9E" transform="translate(238,206)"/>
<path d="M0 0 C9.9 0 19.8 0 30 0 C30 0.33 30 0.66 30 1 C29.17274414 1.01981934 28.34548828 1.03963867 27.49316406 1.06005859 C23.74512194 1.15531212 19.99763683 1.26499109 16.25 1.375 C14.94804687 1.4059375 13.64609375 1.436875 12.3046875 1.46875 C11.05429687 1.50742188 9.80390625 1.54609375 8.515625 1.5859375 C7.36352539 1.6173584 6.21142578 1.6487793 5.02441406 1.68115234 C2.15165578 1.98401175 0.43820389 2.5088238 -2 4 C-1.34 2.68 -0.68 1.36 0 0 Z " fill="#CCCCCA" transform="translate(319,180)"/>
<path d="M0 0 C4.29 0.66 8.58 1.32 13 2 C12.01 3.485 12.01 3.485 11 5 C5.06 4.01 5.06 4.01 -1 3 C-0.67 2.01 -0.34 1.02 0 0 Z " fill="#2E7D8B" transform="translate(289,88)"/>
<path d="M0 0 C-0.54074373 3.78520613 -2.07572746 5.59177555 -5 8 C-5.99 8 -6.98 8 -8 8 C-8 6.68 -8 5.36 -8 4 C-3.88888889 0 -3.88888889 0 0 0 Z " fill="#307785" transform="translate(362,373)"/>
<path d="M0 0 C2.97 0.495 2.97 0.495 6 1 C4.7508258 4.45925163 3.32472205 7.14693203 1 10 C0.01 9.67 -0.98 9.34 -2 9 C-1.34 8.01 -0.68 7.02 0 6 C0.16699232 2.87478167 0.16699232 2.87478167 0 0 Z " fill="#E4E5E4" transform="translate(252,328)"/>
<path d="M0 0 C2.60423592 -0.02697137 5.20819244 -0.04682489 7.8125 -0.0625 C8.55048828 -0.07087891 9.28847656 -0.07925781 10.04882812 -0.08789062 C13.29922068 -0.10259828 15.89404895 -0.03531702 19 1 C18.67 1.99 18.34 2.98 18 4 C12.06 3.01 6.12 2.02 0 1 C0 0.67 0 0.34 0 0 Z " fill="#3E7A84" transform="translate(238,121)"/>
<path d="M0 0 C-0.99 0.66 -1.98 1.32 -3 2 C-1.68 2.99 -0.36 3.98 1 5 C0.67 5.66 0.34 6.32 0 7 C-3.3 5.02 -6.6 3.04 -10 1 C-6.37535939 -2.62464061 -4.33962722 -1.99388278 0 0 Z " fill="#286771" transform="translate(166,390)"/>
<path d="M0 0 C2.95749791 3.46741134 5.07848152 6.86873527 7 11 C6.01 11 5.02 11 4 11 C3.67 12.32 3.34 13.64 3 15 C2.34 13.35 1.68 11.7 1 10 C1.66 10 2.32 10 3 10 C2.67 8.02 2.34 6.04 2 4 C1.01 3.67 0.02 3.34 -1 3 C-0.67 2.01 -0.34 1.02 0 0 Z " fill="#296873" transform="translate(106,329)"/>
<path d="M0 0 C0.99 0.33 1.98 0.66 3 1 C3.59732819 3.76264289 4 6.16032769 4 9 C3.01 9 2.02 9 1 9 C-1 6 -1 6 -0.625 2.8125 C-0.41875 1.884375 -0.2125 0.95625 0 0 Z " fill="#197281" transform="translate(248,269)"/>
<path d="M0 0 C0.33 0 0.66 0 1 0 C1 2.97 1 5.94 1 9 C0.01 9 -0.98 9 -2 9 C-3.33981486 9.3062434 -4.67511887 9.63451555 -6 10 C-5.18957164 8.51969728 -4.37659652 7.04078858 -3.5625 5.5625 C-2.88380859 4.32693359 -2.88380859 4.32693359 -2.19140625 3.06640625 C-1 1 -1 1 0 0 Z " fill="#A8AAA9" transform="translate(331,205)"/>
<path d="M0 0 C2.64 0 5.28 0 8 0 C7.67 0.66 7.34 1.32 7 2 C7.66 2.66 8.32 3.32 9 4 C6.36 4.33 3.72 4.66 1 5 C0.67 3.35 0.34 1.7 0 0 Z " fill="#A0A09E" transform="translate(140,180)"/>
<path d="M0 0 C2.08432499 3.12648749 3.28558611 6.05730868 4.625 9.5625 C5.07101563 10.71878906 5.51703125 11.87507813 5.9765625 13.06640625 C7 16 7 16 7 18 C6.01 17.67 5.02 17.34 4 17 C3.67 14.69 3.34 12.38 3 10 C2.34 10 1.68 10 1 10 C0.67 6.7 0.34 3.4 0 0 Z " fill="#2D6B73" transform="translate(92,296)"/>
<path d="M0 0 C3.05939031 2.94172145 5.80958875 6.07030597 8.53515625 9.31640625 C9.9594908 10.95344142 11.4477939 12.48464152 13 14 C7.85343397 12.5525283 3.3374694 9.13249933 0 5 C-0.23046875 2.26953125 -0.23046875 2.26953125 0 0 Z " fill="#327783" transform="translate(248,216)"/>
<path d="M0 0 C0.66 0 1.32 0 2 0 C2 0.66 2 1.32 2 2 C3.32 2.33 4.64 2.66 6 3 C6 4.32 6 5.64 6 7 C6.66 7 7.32 7 8 7 C8.66 8.32 9.32 9.64 10 11 C9.01 11 8.02 11 7 11 C5.4296875 9.35546875 5.4296875 9.35546875 3.875 7.1875 C3.35679687 6.47980469 2.83859375 5.77210938 2.3046875 5.04296875 C1 3 1 3 0 0 Z " fill="#347A84" transform="translate(240,218)"/>
<path d="M0 0 C0 0.99 0 1.98 0 3 C0.99 3.66 1.98 4.32 3 5 C1.35 5.66 -0.3 6.32 -2 7 C-2 6.01 -2 5.02 -2 4 C-2.763125 4.515625 -3.52625 5.03125 -4.3125 5.5625 C-5.199375 6.036875 -6.08625 6.51125 -7 7 C-7.99 6.67 -8.98 6.34 -10 6 C-6.7 4.02 -3.4 2.04 0 0 Z " fill="#2C6A75" transform="translate(334,390)"/>
<path d="M0 0 C2.97 1.98 2.97 1.98 6 4 C5.01 4.33 4.02 4.66 3 5 C3.99 5.99 4.98 6.98 6 8 C5.67 8.66 5.34 9.32 5 10 C2.69 8.35 0.38 6.7 -2 5 C-1.34 4.01 -0.68 3.02 0 2 C0 1.34 0 0.68 0 0 Z " fill="#2F7179" transform="translate(348,114)"/>
<path d="M0 0 C0.99 0 1.98 0 3 0 C4.5625 2.8125 4.5625 2.8125 6 6 C5.67 6.99 5.34 7.98 5 9 C2.5 7.3125 2.5 7.3125 0 5 C-0.3125 2.25 -0.3125 2.25 0 0 Z " fill="#257886" transform="translate(110,340)"/>
<path d="M0 0 C0 1.32 0 2.64 0 4 C-0.66 4.66 -1.32 5.32 -2 6 C-2 4.68 -2 3.36 -2 2 C-5.37462715 2.54723683 -7.08235 3.0549 -10 5 C-7.77318588 -1.20326792 -6.3484942 -1.24209669 0 0 Z " fill="#1B545D" transform="translate(267,245)"/>
<path d="M0 0 C0.66 0.33 1.32 0.66 2 1 C2.625 4.0625 2.625 4.0625 3 7 C2.01 7.66 1.02 8.32 0 9 C-0.99 7.02 -1.98 5.04 -3 3 C-2.01 2.01 -1.02 1.02 0 0 Z " fill="#E7E9E8" transform="translate(189,225)"/>
<path d="M0 0 C0.99 0 1.98 0 3 0 C2.01 4.95 1.02 9.9 0 15 C-0.33 15 -0.66 15 -1 15 C-1.02715383 13.25008666 -1.04646551 11.50005055 -1.0625 9.75 C-1.07410156 8.77546875 -1.08570313 7.8009375 -1.09765625 6.796875 C-1.01195577 4.34241322 -0.70706066 2.33831086 0 0 Z " fill="#347378" transform="translate(297,211)"/>
<path d="M0 0 C1.59190467 3.18380933 0.28749598 6.28076324 -0.4375 9.625 C-0.65889648 10.68460938 -0.65889648 10.68460938 -0.88476562 11.765625 C-1.25049493 13.51168749 -1.62447121 15.25601884 -2 17 C-2.33 17 -2.66 17 -3 17 C-3 14.69 -3 12.38 -3 10 C-5.33075929 10.95865509 -5.33075929 10.95865509 -7 14 C-6.67 12.35 -6.34 10.7 -6 9 C-4.68 8.67 -3.36 8.34 -2 8 C-1.855625 6.865625 -1.71125 5.73125 -1.5625 4.5625 C-1 1 -1 1 0 0 Z " fill="#36727A" transform="translate(91,206)"/>
<path d="M0 0 C2.74502978 1.37251489 3.20969523 3.02016112 4.5625 5.75 C4.99691406 6.61109375 5.43132812 7.4721875 5.87890625 8.359375 C6.96715742 10.92264256 7.56110631 13.25814729 8 16 C3.68672128 10.79431879 0.79381754 6.82683085 0 0 Z " fill="#397C83" transform="translate(296,182)"/>
<path d="M0 0 C0.33 0.66 0.66 1.32 1 2 C1.99 2 2.98 2 4 2 C4 1.34 4 0.68 4 0 C4.66 0 5.32 0 6 0 C4.84414715 3.91211733 3.64465038 6.8745041 1 10 C1.33 8.02 1.66 6.04 2 4 C0.68 4.33 -0.64 4.66 -2 5 C-1.34 3.35 -0.68 1.7 0 0 Z " fill="#2D6E78" transform="translate(101,170)"/>
<path d="M0 0 C-1.875 5.75 -1.875 5.75 -3 8 C-4.65 8 -6.3 8 -8 8 C-7.67 7.01 -7.34 6.02 -7 5 C-6.34 4.67 -5.68 4.34 -5 4 C-4.67 3.01 -4.34 2.02 -4 1 C-2 0 -2 0 0 0 Z " fill="#277889" transform="translate(129,137)"/>
<path d="M0 0 C1.31602523 0.61754259 2.62773556 1.24428742 3.9375 1.875 C4.66839844 2.22304687 5.39929688 2.57109375 6.15234375 2.9296875 C8 4 8 4 9 6 C6.69 5.34 4.38 4.68 2 4 C1.34 4.66 0.68 5.32 0 6 C-1.98 4.68 -3.96 3.36 -6 2 C-5.34 1.67 -4.68 1.34 -4 1 C-3.01 1.66 -2.02 2.32 -1 3 C-0.67 2.01 -0.34 1.02 0 0 Z " fill="#2B6F78" transform="translate(339,108)"/>
<path d="M0 0 C-0.33 1.32 -0.66 2.64 -1 4 C-3.64 4.66 -6.28 5.32 -9 6 C-9 4.68 -9 3.36 -9 2 C-2.25 0 -2.25 0 0 0 Z " fill="#237E87" transform="translate(183,98)"/>
<path d="M0 0 C0.66 0 1.32 0 2 0 C1.38461538 6.52307692 1.38461538 6.52307692 -0.5625 8.9375 C-1.036875 9.288125 -1.51125 9.63875 -2 10 C-2.66 8.35 -3.32 6.7 -4 5 C-3.34 5 -2.68 5 -2 5 C-1.34 3.35 -0.68 1.7 0 0 Z " fill="#327782" transform="translate(397,325)"/>
<path d="M0 0 C2.0343459 1.41519715 2.90410393 2.54982123 3.421875 4.98046875 C3.66273952 6.98176954 3.83532741 8.9909944 4 11 C3.01 11 2.02 11 1 11 C0 3.375 0 3.375 0 0 Z " fill="#2B7A8D" transform="translate(407,197)"/>
<path d="M0 0 C1.65 1.65 3.3 3.3 5 5 C4.67 5.66 4.34 6.32 4 7 C1 5 1 5 0.3125 2.375 C0.209375 1.59125 0.10625 0.8075 0 0 Z M-3 3 C-2.34 3 -1.68 3 -1 3 C-1 3.66 -1 4.32 -1 5 C-0.01 5.33 0.98 5.66 2 6 C2.33 7.65 2.66 9.3 3 11 C-1.875 6.375 -1.875 6.375 -3 3 Z " fill="#2E6D76" transform="translate(385,151)"/>
<path d="M0 0 C0.99 0.33 1.98 0.66 3 1 C1.92319498 2.13125022 0.83824365 3.25474919 -0.25 4.375 C-0.85328125 5.00148438 -1.4565625 5.62796875 -2.078125 6.2734375 C-3.9700588 7.97310161 -5.68201309 8.98459866 -8 10 C-6.44303593 6.17836093 -3.96591316 3.81381505 -1 1 C-0.67 0.67 -0.34 0.34 0 0 Z " fill="#021317" transform="translate(366,362)"/>
<path d="M0 0 C0 0.99 0 1.98 0 3 C-4.29 3 -8.58 3 -13 3 C-10.37358828 1.24905885 -8.89308789 0.54725362 -5.9375 -0.1875 C-5.24527344 -0.36667969 -4.55304688 -0.54585938 -3.83984375 -0.73046875 C-2 -1 -2 -1 0 0 Z " fill="#F3F3F1" transform="translate(154,346)"/>
<path d="M0 0 C0.66 0 1.32 0 2 0 C4 3 4 3 4.5 5.625 C4.665 6.40875 4.83 7.1925 5 8 C5.66 8.33 6.32 8.66 7 9 C5.02 9.99 5.02 9.99 3 11 C2.01 7.37 1.02 3.74 0 0 Z " fill="#2B7483" transform="translate(88,298)"/>
<path d="M0 0 C1.79379098 0.44994757 3.58498928 0.91024143 5.375 1.375 C6.37273437 1.63023438 7.37046875 1.88546875 8.3984375 2.1484375 C11 3 11 3 13 5 C11.35 5.33 9.7 5.66 8 6 C8 5.34 8 4.68 8 4 C5.36 3.67 2.72 3.34 0 3 C0 2.01 0 1.02 0 0 Z " fill="#448590" transform="translate(257,122)"/>
<path d="M0 0 C0.66 0 1.32 0 2 0 C2.66 0.99 3.32 1.98 4 3 C4.33 2.01 4.66 1.02 5 0 C6.89213369 2.38573379 8.02391783 4.07175348 9 7 C7 7 5 7 3 7 C2.01 4.69 1.02 2.38 0 0 Z " fill="#31717B" transform="translate(94,315)"/>
<path d="M0 0 C1.32 0.33 2.64 0.66 4 1 C4 4 4 4 2.6875 5.6875 C1 7 1 7 -2 7 C-1.34 4.69 -0.68 2.38 0 0 Z " fill="#E7E8E7" transform="translate(226,265)"/>
<path d="M0 0 C0.99 0.495 0.99 0.495 2 1 C1.01 1.495 1.01 1.495 0 2 C0 1.34 0 0.68 0 0 Z M-1 2 C1.91517292 3.07401108 3.77810176 3.77810176 6 6 C6.125 9.125 6.125 9.125 6 12 C3.4000702 9.48972295 1.00908773 7.0136316 -1 4 C-1 3.34 -1 2.68 -1 2 Z " fill="#A5A5A3" transform="translate(189,252)"/>
<path d="M0 0 C0.99 0.33 1.98 0.66 3 1 C2.01 2.485 2.01 2.485 1 4 C1.30840599 6.15274948 1.30840599 6.15274948 2 8 C1.01 8 0.02 8 -1 8 C-1 7.34 -1 6.68 -1 6 C-2.32 6.33 -3.64 6.66 -5 7 C-3.35 4.69 -1.7 2.38 0 0 Z " fill="#B2B3B0" transform="translate(308,241)"/>
<path d="M0 0 C1.98 0.495 1.98 0.495 4 1 C2.8141763 4.37503669 1.72426311 6.64722731 -1 9 C-1.125 2.25 -1.125 2.25 0 0 Z " fill="#F4F4F1" transform="translate(312,224)"/>
<path d="M0 0 C0.66 0.66 1.32 1.32 2 2 C0.35 3.65 -1.3 5.3 -3 7 C-3.99 6.34 -4.98 5.68 -6 5 C-4.02 3.35 -2.04 1.7 0 0 Z M-8 6 C-7.34 6.33 -6.68 6.66 -6 7 C-6.99 7.99 -7.98 8.98 -9 10 C-8.67 8.68 -8.34 7.36 -8 6 Z " fill="#05151D" transform="translate(314,208)"/>
<path d="M0 0 C2.17874742 2.17874742 3.19488852 4.12344736 4.5625 6.875 C4.99691406 7.73867187 5.43132812 8.60234375 5.87890625 9.4921875 C6.85597373 11.67782277 7.51652022 13.66408647 8 16 C3.76137384 12.51827137 1.76297954 8.09201006 0 3 C0 2.01 0 1.02 0 0 Z " fill="#387B86" transform="translate(192,197)"/>
<path d="M0 0 C4.30764815 1.56641751 8.06171464 3.68336156 12 6 C8.86650268 7.04449911 8.01031744 6.93423645 5 6 C5 5.34 5 4.68 5 4 C2.525 3.01 2.525 3.01 0 2 C0 1.34 0 0.68 0 0 Z " fill="#021216" transform="translate(264,133)"/>
<path d="M0 0 C0.33 0.66 0.66 1.32 1 2 C-0.38866323 2.9893091 -1.78629851 3.96603078 -3.1875 4.9375 C-3.96480469 5.48277344 -4.74210937 6.02804687 -5.54296875 6.58984375 C-8.07950299 8.0456289 -10.1218182 8.59613435 -13 9 C-10.57542028 6.31765765 -7.92489603 4.63143275 -4.8125 2.8125 C-3.91144531 2.28269531 -3.01039063 1.75289063 -2.08203125 1.20703125 C-1.39496094 0.80871094 -0.70789063 0.41039062 0 0 Z " fill="#010F15" transform="translate(342,391)"/>
<path d="M0 0 C4.75 1.875 4.75 1.875 7 3 C7 4.32 7 5.64 7 7 C5.35 6.67 3.7 6.34 2 6 C1.34 4.02 0.68 2.04 0 0 Z " fill="#969695" transform="translate(352,342)"/>
<path d="M0 0 C1.65 0.33 3.3 0.66 5 1 C4.67 2.32 4.34 3.64 4 5 C2.02 5.33 0.04 5.66 -2 6 C-1.34 4.02 -0.68 2.04 0 0 Z " fill="#D8DAD9" transform="translate(293,272)"/>
<path d="M0 0 C0.66 0 1.32 0 2 0 C2 3.3 2 6.6 2 10 C1.01 9.34 0.02 8.68 -1 8 C-1.25 4.4375 -1.25 4.4375 -1 1 C-0.67 0.67 -0.34 0.34 0 0 Z " fill="#358194" transform="translate(86,216)"/>
<path d="M0 0 C-0.33 2.31 -0.66 4.62 -1 7 C-2.32 7.33 -3.64 7.66 -5 8 C-4.74438677 5.6568787 -4.40729228 3.32156597 -4 1 C-2 0 -2 0 0 0 Z " fill="#2D7F8C" transform="translate(103,174)"/>
<path d="M0 0 C2.97 0 5.94 0 9 0 C9 0.66 9 1.32 9 2 C10.32 2 11.64 2 13 2 C13 2.66 13 3.32 13 4 C11.39431334 3.71682074 9.79047953 3.42312209 8.1875 3.125 C7.29417969 2.96257812 6.40085938 2.80015625 5.48046875 2.6328125 C3 2 3 2 0 0 Z " fill="#27656F" transform="translate(200,411)"/>
<path d="M0 0 C3.28788824 3.11016455 5.83735988 6.01618925 8 10 C6.68 9.67 5.36 9.34 4 9 C3.896875 8.360625 3.79375 7.72125 3.6875 7.0625 C3.460625 6.381875 3.23375 5.70125 3 5 C2.01 4.67 1.02 4.34 0 4 C0 2.68 0 1.36 0 0 Z " fill="#367682" transform="translate(287,138)"/>
<path d="M0 0 C1.32 0 2.64 0 4 0 C2.55746343 3.36591866 0.66735273 5.51047079 -2 8 C-2.125 5.125 -2.125 5.125 -2 2 C-1.34 1.34 -0.68 0.68 0 0 Z " fill="#AFB1B1" transform="translate(254,305)"/>
<path d="M0 0 C1.32 0.66 2.64 1.32 4 2 C3.67 3.98 3.34 5.96 3 8 C2.67 6.68 2.34 5.36 2 4 C1.01 4.33 0.02 4.66 -1 5 C-1.33 4.34 -1.66 3.68 -2 3 C-1.34 2.01 -0.68 1.02 0 0 Z " fill="#23808E" transform="translate(259,251)"/>
<path d="M0 0 C2.76544722 3.45680903 4.84921278 7.14341602 7 11 C6.01 11.66 5.02 12.32 4 13 C0.71428571 4.57142857 0.71428571 4.57142857 0 0 Z " fill="#317984" transform="translate(201,200)"/>
<path d="M0 0 C3.3 0 6.6 0 10 0 C10 0.99 10 1.98 10 3 C8.02 3.33 6.04 3.66 4 4 C4 3.01 4 2.02 4 1 C2.68 0.67 1.36 0.34 0 0 Z " fill="#E1E1DF" transform="translate(349,180)"/>
<path d="M0 0 C2.4375 0.8125 2.4375 0.8125 5 2 C5.33 2.99 5.66 3.98 6 5 C5.67 5.66 5.34 6.32 5 7 C4.01 7 3.02 7 2 7 C1.34 4.69 0.68 2.38 0 0 Z " fill="#25777F" transform="translate(386,156)"/>
<path d="M0 0 C-1.0625 2 -1.0625 2 -3 4 C-6.6875 4.25 -6.6875 4.25 -10 4 C-6.66064924 0.50886057 -4.84725717 -0.1275594 0 0 Z " fill="#267E8D" transform="translate(195,94)"/>
<path d="M0 0 C1.32 1.32 2.64 2.64 4 4 C3.01 4.33 2.02 4.66 1 5 C0.67 5.99 0.34 6.98 0 8 C-0.99 6.68 -1.98 5.36 -3 4 C-2.67 3.34 -2.34 2.68 -2 2 C-1.34 2 -0.68 2 0 2 C0 1.34 0 0.68 0 0 Z " fill="#21616E" transform="translate(126,357)"/>
<path d="M0 0 C0.99 0.33 1.98 0.66 3 1 C0.69 3.97 -1.62 6.94 -4 10 C-4.66 9.34 -5.32 8.68 -6 8 C-4.02 5.36 -2.04 2.72 0 0 Z " fill="#000F12" transform="translate(380,345)"/>
<path d="M0 0 C1.485 0.99 1.485 0.99 3 2 C4.66324401 3.00568242 6.32936253 4.00664799 8 5 C7.01 6.485 7.01 6.485 6 8 C1.2 4.55384615 1.2 4.55384615 0.1875 1.75 C0.125625 1.1725 0.06375 0.595 0 0 Z " fill="#F1F1EF" transform="translate(230,312)"/>
<path d="M0 0 C0.99 0 1.98 0 3 0 C4.6875 2.5 4.6875 2.5 6 5 C2.79604584 5 0.90600261 4.25664978 -2 3 C-1.34 2.01 -0.68 1.02 0 0 Z " fill="#C4C5C5" transform="translate(258,282)"/>
<path d="M0 0 C1.37562854 1.28965176 2.70766393 2.62689293 4 4 C4 4.66 4 5.32 4 6 C4.66 6.33 5.32 6.66 6 7 C4.68 7.99 3.36 8.98 2 10 C1.34 6.7 0.68 3.4 0 0 Z " fill="#28616C" transform="translate(250,268)"/>
<path d="M0 0 C0.66 0 1.32 0 2 0 C2.66 1.65 3.32 3.3 4 5 C4.99 5 5.98 5 7 5 C6.67 5.99 6.34 6.98 6 8 C2.57701423 6.85900474 1.85241234 5.99914379 0 3 C0 2.01 0 1.02 0 0 Z " fill="#28676E" transform="translate(245,273)"/>
<path d="M0 0 C1.2077558 3.62326739 0.54311128 4.64146369 -1 8 C-1.66 8 -2.32 8 -3 8 C-3.1875 5.125 -3.1875 5.125 -3 2 C-2.01 1.34 -1.02 0.68 0 0 Z " fill="#30808D" transform="translate(95,189)"/>
<path d="M0 0 C0 0.66 0 1.32 0 2 C-1.2065625 2.433125 -1.2065625 2.433125 -2.4375 2.875 C-5.1326468 3.73262568 -5.1326468 3.73262568 -6 6 C-7.65 6 -9.3 6 -11 6 C-8.24029211 2.78034079 -4.3526723 0 0 0 Z " fill="#36737B" transform="translate(226,125)"/>
<path d="M0 0 C0.66 0.33 1.32 0.66 2 1 C0.02 2.98 -1.96 4.96 -4 7 C-4.99 6.67 -5.98 6.34 -7 6 C-4.69 4.02 -2.38 2.04 0 0 Z M-9 7 C-8.34 7.33 -7.68 7.66 -7 8 C-7.99 8 -8.98 8 -10 8 C-9.67 7.67 -9.34 7.34 -9 7 Z " fill="#021417" transform="translate(355,381)"/>
<path d="M0 0 C2.475 0.495 2.475 0.495 5 1 C5.33 2.32 5.66 3.64 6 5 C4.125 4.75 4.125 4.75 2 4 C0.75 1.9375 0.75 1.9375 0 0 Z " fill="#237981" transform="translate(120,354)"/>
<path d="M0 0 C-1.485 1.485 -1.485 1.485 -3 3 C-3 2.34 -3 1.68 -3 1 C-7.29 1 -11.58 1 -16 1 C-16 0.67 -16 0.34 -16 0 C-13.89651926 -0.19504458 -11.79217415 -0.38078496 -9.6875 -0.5625 C-8.51574219 -0.66691406 -7.34398437 -0.77132812 -6.13671875 -0.87890625 C-3 -1 -3 -1 0 0 Z " fill="#E4E5E5" transform="translate(297,253)"/>
<path d="M0 0 C0 0.66 0 1.32 0 2 C-0.99 2.66 -1.98 3.32 -3 4 C-3.73343428 7.06556598 -3.73343428 7.06556598 -4 10 C-4.99 9.34 -5.98 8.68 -7 8 C-4.18918919 0 -4.18918919 0 0 0 Z " fill="#227682" transform="translate(119,149)"/>
<path d="M0 0 C0 3 0 3 -2.5 5.6875 C-3.325 6.450625 -4.15 7.21375 -5 8 C-5.99 7.67 -6.98 7.34 -8 7 C-5.36 4.69 -2.72 2.38 0 0 Z " fill="#021113" transform="translate(144,126)"/>
<path d="M0 0 C0.66 0.33 1.32 0.66 2 1 C1.67 1.66 1.34 2.32 1 3 C1.99 3.33 2.98 3.66 4 4 C2.02 4.99 2.02 4.99 0 6 C0 5.34 0 4.68 0 4 C-1.32 3.67 -2.64 3.34 -4 3 C-2.68 2.01 -1.36 1.02 0 0 Z " fill="#30717A" transform="translate(159,108)"/>
<path d="M0 0 C1.48484412 0.39595843 2.9628831 0.81750706 4.4375 1.25 C5.26121094 1.48203125 6.08492188 1.7140625 6.93359375 1.953125 C9 3 9 3 9.78515625 5.109375 C9.85605469 5.73328125 9.92695313 6.3571875 10 7 C8.33073546 6.02526874 6.66464358 5.04510211 5 4.0625 C4.071875 3.51722656 3.14375 2.97195312 2.1875 2.41015625 C1.465625 1.94480469 0.74375 1.47945313 0 1 C0 0.67 0 0.34 0 0 Z " fill="#03111A" transform="translate(336,105)"/>
<path d="M0 0 C1.38157895 4.14473684 1.38157895 4.14473684 0 7 C-3.0625 8.25 -3.0625 8.25 -6 9 C-4 6 -2 3 0 0 Z " fill="#BEBEBD" transform="translate(265,272)"/>
<path d="M0 0 C1.32 0.66 2.64 1.32 4 2 C4 2.99 4 3.98 4 5 C3.01 5.33 2.02 5.66 1 6 C-0.0625 4.125 -0.0625 4.125 -1 2 C-0.67 1.34 -0.34 0.68 0 0 Z " fill="#2D7D88" transform="translate(228,240)"/>
<path d="M0 0 C1.95582488 2.93373731 3.56224304 5.78216298 5 9 C4.67 9.66 4.34 10.32 4 11 C1 9 1 9 0.48828125 6.8359375 C0.43027344 6.02382812 0.37226563 5.21171875 0.3125 4.375 C0.24675781 3.55773437 0.18101562 2.74046875 0.11328125 1.8984375 C0.07589844 1.27195313 0.03851563 0.64546875 0 0 Z " fill="#03121A" transform="translate(235,208)"/>
<path d="M0 0 C2 1.8125 2 1.8125 4 4 C4 4.99 4 5.98 4 7 C2.35 7.33 0.7 7.66 -1 8 C-0.67 5.36 -0.34 2.72 0 0 Z " fill="#031921" transform="translate(303,198)"/>
<path d="M0 0 C1.32 0 2.64 0 4 0 C4.33 1.98 4.66 3.96 5 6 C4.34 6 3.68 6 3 6 C3 5.34 3 4.68 3 4 C2.01 3.67 1.02 3.34 0 3 C0 2.01 0 1.02 0 0 Z " fill="#28808C" transform="translate(381,150)"/>
<path d="M0 0 C0.66 0 1.32 0 2 0 C0.97912836 3.06261493 0.47189851 4.05779403 -2 6 C-4.6875 6.6875 -4.6875 6.6875 -7 7 C-4.66666667 4.66666667 -2.33333333 2.33333333 0 0 Z " fill="#317680" transform="translate(213,131)"/>
<path d="M0 0 C1.32 0.33 2.64 0.66 4 1 C3.67 1.99 3.34 2.98 3 4 C1.35 4 -0.3 4 -2 4 C-1.34 2.68 -0.68 1.36 0 0 Z " fill="#287D88" transform="translate(311,403)"/>
<path d="M0 0 C0.33 0 0.66 0 1 0 C1.3125 2.6875 1.3125 2.6875 1 6 C-1.5 8.875 -1.5 8.875 -4 11 C-2.7874262 7.27566618 -1.49140021 3.62197194 0 0 Z " fill="#041219" transform="translate(407,311)"/>
<path d="M0 0 C0.66 0 1.32 0 2 0 C1.67 2.31 1.34 4.62 1 7 C0.01 7 -0.98 7 -2 7 C-2.33 6.34 -2.66 5.68 -3 5 C-2.34 5 -1.68 5 -1 5 C-0.67 3.35 -0.34 1.7 0 0 Z " fill="#EFEFEF" transform="translate(277,296)"/>
<path d="M0 0 C2.52588702 2.36292656 3.88820837 3.66462511 5 7 C4.34 7 3.68 7 3 7 C3 6.34 3 5.68 3 5 C2.01 5.33 1.02 5.66 0 6 C-0.38218767 4.34385343 -0.71395102 2.67542976 -1 1 C-0.67 0.67 -0.34 0.34 0 0 Z " fill="#050D16" transform="translate(196,209)"/>
<path d="M0 0 C6.52307692 0.61538462 6.52307692 0.61538462 8.9375 2.5625 C9.288125 3.036875 9.63875 3.51125 10 4 C5.78087253 3.5205537 3.20336822 2.83374881 0 0 Z " fill="#2A707A" transform="translate(182,404)"/>
<path d="M0 0 C0.33 1.32 0.66 2.64 1 4 C-0.65 5.32 -2.3 6.64 -4 8 C-4.66 7.67 -5.32 7.34 -6 7 C-4.02 4.69 -2.04 2.38 0 0 Z " fill="#02151C" transform="translate(263,264)"/>
<path d="M0 0 C1.64826111 2.96687001 2.44271087 5.65626525 3 9 C2.01 9.495 2.01 9.495 1 10 C1 8.68 1 7.36 1 6 C0.34 6 -0.32 6 -1 6 C-0.67 4.02 -0.34 2.04 0 0 Z " fill="#36767D" transform="translate(198,190)"/>
<path d="M0 0 C0.33 1.32 0.66 2.64 1 4 C-1.4375 6.75 -1.4375 6.75 -4 9 C-4.66 8.67 -5.32 8.34 -6 8 C-4.02 5.36 -2.04 2.72 0 0 Z " fill="#04171B" transform="translate(211,144)"/>
<path d="M0 0 C1.53202706 0.25195908 3.05257128 0.57596777 4.5625 0.9375 C5.38878906 1.13214844 6.21507812 1.32679687 7.06640625 1.52734375 C8.02353516 1.76130859 8.02353516 1.76130859 9 2 C6 4 6 4 2 4 C2 3.34 2 2.68 2 2 C1.01 1.67 0.02 1.34 -1 1 C-0.67 0.67 -0.34 0.34 0 0 Z " fill="#377D8C" transform="translate(210,87)"/>
<path d="M0 0 C-0.8125 1.9375 -0.8125 1.9375 -2 4 C-2.99 4.33 -3.98 4.66 -5 5 C-5.66 4.01 -6.32 3.02 -7 2 C-4.35261084 0.5393715 -3.10551666 0 0 0 Z " fill="#F3F5F4" transform="translate(263,322)"/>
<path d="M0 0 C1.32 0.33 2.64 0.66 4 1 C4 1.99 4 2.98 4 4 C4.66 4 5.32 4 6 4 C6 4.99 6 5.98 6 7 C5.34 7 4.68 7 4 7 C2.02 3.535 2.02 3.535 0 0 Z " fill="#B3B4B5" transform="translate(241,304)"/>
<path d="M0 0 C0.99 0.33 1.98 0.66 3 1 C3 2.98 3 4.96 3 7 C2.01 7 1.02 7 0 7 C0 4.69 0 2.38 0 0 Z " fill="#2B818F" transform="translate(410,287)"/>
<path d="M0 0 C0.66 0 1.32 0 2 0 C0.52307692 4.67692308 0.52307692 4.67692308 -2.125 6.3125 C-3.053125 6.6528125 -3.053125 6.6528125 -4 7 C-2.79618552 4.50638429 -1.54571278 2.31856917 0 0 Z " fill="#EEEFEF" transform="translate(268,292)"/>
<path d="M0 0 C0.33 0 0.66 0 1 0 C0.67 2.64 0.34 5.28 0 8 C-0.66 8 -1.32 8 -2 8 C-1.125 1.125 -1.125 1.125 0 0 Z " fill="#2A818A" transform="translate(89,206)"/>
<path d="M0 0 C0 0.99 0 1.98 0 3 C-1.8125 4.75 -1.8125 4.75 -4 6 C-4.99 5.67 -5.98 5.34 -7 5 C-4.69 3.35 -2.38 1.7 0 0 Z " fill="#021318" transform="translate(157,116)"/>
<path d="M0 0 C2.97 0.33 5.94 0.66 9 1 C9 1.99 9 2.98 9 4 C6.03 3.01 3.06 2.02 0 1 C0 0.67 0 0.34 0 0 Z " fill="#06161E" transform="translate(306,91)"/>
<path d="M0 0 C-4.95 1.485 -4.95 1.485 -10 3 C-9.67 2.01 -9.34 1.02 -9 0 C-5.32431536 -0.91892116 -3.83619425 -0.95904856 0 0 Z " fill="#010F18" transform="translate(196,91)"/>
</svg>
